<svg id="Layer_1" data-name="Layer 1" xmlns="http://www.w3.org/2000/svg" viewBox="0 0 425.16 318.29"><defs><style>.cls-1{fill:#333;}.cls-14,.cls-2{fill:#fff;}.cls-20,.cls-3,.cls-5{fill:#7e86a4;}.cls-3,.cls-4{opacity:0.46;}.cls-6{fill:#e35349;}.cls-7{fill:#033232;}.cls-8{fill:#926a61;}.cls-11,.cls-9{fill:none;}.cls-9{stroke:#280952;stroke-width:1.29px;}.cls-11,.cls-12,.cls-14,.cls-9{stroke-miterlimit:10;}.cls-10{fill:#e3e3e3;opacity:0;}.cls-11,.cls-12{stroke:#333;stroke-width:1.23px;}.cls-12,.cls-13{fill:#033333;}.cls-14{stroke:#000;stroke-width:1.66px;}.cls-15{fill:#c79cb4;}.cls-16{fill:#e4c3cc;opacity:0.34;}.cls-17,.cls-19{fill:#d68f60;}.cls-18{fill:#606060;opacity:0.2;}.cls-19{opacity:0.39;}.cls-20{opacity:0.18;}</style></defs><title>illustration-3</title><path class="cls-1" d="M319.75,342.51V112.91s-2.05-23.22,27.74-22c25.11,1,39.46.48,62.18.45,27.78,0,50.39-6.69,48.23,32.34-1.19,21.4,0,42.87,0,64.3V328.87c0,3.76,0,7.51,0,11.27C458,351,454.07,358.27,444,360.66c-9.59,2.27-22.57,1.54-32.35,1.17s-19.49,0-29.28,0c-7.16,0-14.31-.69-21.47-.73q-8.43,0-16.85,0c-6.34,0-12.31,1.32-17.28-3.37A20.7,20.7,0,0,1,319.75,342.51Z" transform="translate(-32.88 -90.85)"/><polygon class="cls-2" points="293.78 29.29 416.89 29.29 416.89 244.95 293.78 244.95 293.78 48.39 293.78 29.29"/><polygon class="cls-3" points="296.23 174.87 400.05 29.29 404.95 29.29 296.23 181.91 296.23 174.87"/><g class="cls-4"><polyline class="cls-5" points="325.42 171.1 361.96 197.75 352.79 209.01 315.45 184.4 325.42 171.1"/><polygon class="cls-5" points="356.74 212.58 366.23 199.56 385.84 213.79 412.42 177.16 416.84 179.58 416.84 207.44 395.01 238.32 356.74 212.58"/><polygon class="cls-5" points="302.32 190.06 376.67 241.65 380.78 241.65 303.59 187.75 355.09 117.51 389.32 73.6 416.84 36.36 418.43 30.5 414.94 30.5 349.14 119.93 293.78 82.08 293.78 89.65 345.98 123.87 320.99 158.38 293.78 195.63 293.78 200.78 302.32 190.06"/><polygon class="cls-5" points="293.78 212.89 304.54 198.66 319.09 207.74 293.78 241.65 293.78 212.89"/><polygon class="cls-5" points="346.61 179.88 382.99 131.13 364.8 118.11 328.9 166.86 346.61 179.88"/><polygon class="cls-5" points="350.41 182.91 396.6 121.75 367.18 102 370.06 98.31 418.43 129.85 418.43 136.07 399.44 124.47 352.94 184.12 350.41 182.91"/><polygon class="cls-5" points="293.78 62.4 317.51 79.05 309.92 88.14 293.78 76.93 293.78 62.4"/><polygon class="cls-5" points="345.35 70.88 369.71 38.17 381.41 46.65 358 79.36 345.35 70.88"/><polygon class="cls-5" points="293.78 49.98 355.09 92.14 356.74 89.94 317.51 62.4 340.92 30.5 338.7 30.5 315.45 61.32 293.78 46.96 293.78 49.98"/></g><path class="cls-6" d="M398.32,178.44c-22.35,2.45-3.21,34.23-3.21,34.23l3.65,5,9.94-19.19C414.79,180.48,398.32,178.44,398.32,178.44Zm.44,18a4.88,4.88,0,1,1,4.88-4.88A4.88,4.88,0,0,1,398.76,196.46Z" transform="translate(-32.88 -90.85)"/><path class="cls-2" d="M367.39,104.64h42.66s2.05-3.37-1.93-4H367.39S363.72,102.49,367.39,104.64Z" transform="translate(-32.88 -90.85)"/><circle class="cls-2" cx="393.16" cy="11.79" r="4.13"/><path class="cls-7" d="M128.26,231.86c3.69,6.58,10.1,11.34,13.59,18,1.09,2.09,1.89,4.53,1.28,6.81a1.57,1.57,0,0,1-.68,1.05,1.79,1.79,0,0,1-1.08.06c-1.93-.3-5-.22-6.73-1.09-2.44-1.22-3.55-9.63-5.49-12.27a46.59,46.59,0,0,0-3.71-4.23l-5.73-6C111.63,225.7,123.51,223.39,128.26,231.86Z" transform="translate(-32.88 -90.85)"/><path class="cls-8" d="M169.11,131.73s-1.87,5.3,2.14,8.83L167,147l4.28,4.65v1.23h2.94s-1.07,2.16-2.14,1.75,2.14,6.27,2.14,6.27l9.63.88,4.82,6.37,11.76-11.83,3.75-1.57s8.55-31.51-9.9-35C173.39,115.92,171,129.26,169.11,131.73Z" transform="translate(-32.88 -90.85)"/><path class="cls-7" d="M165.64,127l2.67,3.57c4-.44,8.22-.7,11.92,1.17a9.58,9.58,0,0,1,3.28,2.28,8.31,8.31,0,0,1,1.4,5.49c.72-2.1,3-5.48,5.06-2.62,2.68,3.72-1.6,8.27-1.6,8.27l8.42,8.43,3.61,2.77,3.75-1.57c2.41-.72,7.62-7,8.8-9,5.6-9.12,2-20.25-4.1-28.24-5.74-7.51-16.72-9.38-25.57-8.19a28.23,28.23,0,0,0-13.06,4.92C166.72,116.9,162.36,122.64,165.64,127Z" transform="translate(-32.88 -90.85)"/><line class="cls-9" x1="62.08" y1="235.67" x2="81.94" y2="193.22"/><path class="cls-10" d="M117.45,280.13s-.78-5.66-6-3.54c-4.45,1.8-7.35,9.77-9.36,14.47-2.6,6.09-5.13,12.21-7.66,18.33C92.87,313.1,88,321,90.23,325.17,91.35,327.24,93,328,95,326.52c4-3.16,22.32-43.84,22.32-43.84Z" transform="translate(-32.88 -90.85)"/><ellipse class="cls-6" cx="226.56" cy="266.53" rx="18.9" ry="20.97"/><path class="cls-11" d="M222.52,330.52s38.92,11.93,34.19,32.08c-1.63,7-5.72,13.23-12.18,15.22-6,1.85-11.52-.65-17-3.22l-32.89-15.48L183.81,354l-2-1.91" transform="translate(-32.88 -90.85)"/><path class="cls-12" d="M254,350.33s12.68-6.08,11.94,9.38c0,0-5,9.12-11.94,3.32l-3.24-3.87-41.54-13.25a35.78,35.78,0,0,0-4.27,0c-.67.08-1.87-.33-2.37.29-.64.77-.08,4.69-.09,5.76-3.29,1.92-7.19,1.93-10.91,1.89l-41.44-.43c-2.07,0-4.31-.1-5.94-1.51-4.28-3.69-3.28-16.64-3.71-22.15-.38-4.85-1.39-10.17-1.16-15l1.06-22.9,88-16.16.19,60.66-.44,4.07Zm-53.48-5.8-53.73-2.21s-2,6.9,4.48,6.63,49.25,1.1,49.25,1.1S201.79,347,200.55,344.53ZM154,305.63c-1.49-6.33-9.45-3.06-9.45-3.06v22.91c4.59.74,8.46-5.17,8.46-5.17S155.52,312,154,305.63Zm62.1,29.78s-7.67-1.88-10.36-3.55l-3.11,3.55.87,5,2.24,1.93,8.87-3A40.65,40.65,0,0,1,216.13,335.41Z" transform="translate(-32.88 -90.85)"/><ellipse class="cls-6" cx="46.64" cy="266.53" rx="18.9" ry="20.97"/><path class="cls-7" d="M86.87,358.36s-.25,8.28-8.21,6.9-7-8.84-7-9.11c.35-2.93.73-6.19,3.17-8,3.69-2.69,7.53.87,11,2.07,1.83.64,5.87.5,7-1.84l11.8-24.28s-6.82-14.07-19.76-12.42-13.49-11.32-13.49-11.32a60.87,60.87,0,0,1,43.09,17.67l9.92,14.84,5.75,3.66v2.76L119,338.76l-7.21-9.67-8.1,16.06c-1.75,3.46-2.79,8.53-6,10.78C96.43,356.8,86.87,357.68,86.87,358.36Z" transform="translate(-32.88 -90.85)"/><path class="cls-6" d="M167.87,259.39c-3.41-6.71-18.66-7.22-24.29-7.39l-21.28-.65s-5.89-6-17.68,32.12l-3.85,9.34a108.11,108.11,0,0,1,14.42,6c2.57,1.3,6.68,2.86,8.57,5.3,2.12,2.75,2.54,7.7,5.35,9.77,3,2.24,7.87.71,11.31.66.61-.09.38-6.49.66-7.34a13,13,0,0,1,6.44-7c6.07-3.26,13.06-3.39,19.79-3.46a11,11,0,0,1,3,.25,10.76,10.76,0,0,1,3.22,1.67c6.11,4.15,11.53,9,15.5,15.61,1,1.76,10.19,21.34,10.9,21,8.84-4.55,17.22-11.12,25.65-16.66,0,0,11,8.29,15.63,9.94s13.33,3,13.33,3l45.62-1.38s14.35.83,19.48-9.39-9.62-35.25-10-35.87c-3.42-5.83-12.61-7.39-18.12-8.38-7.68-1.39-15.36-3.49-23.17-3.65-5.87-.12-12.63-1-18.34.85a73.13,73.13,0,0,0-13.41,5.66c-4.6,2.58-5.9,5.71-9.34,9.14-5.8,5.78-16,4.91-23.16,4.45-11.13-.71-22.34-2.3-33.39-3.94-.77-.11-2-24.09-2.21-26.46A8.18,8.18,0,0,0,167.87,259.39Z" transform="translate(-32.88 -90.85)"/><path class="cls-1" d="M79.52,305.63c25.76,0,46.64,23.17,46.64,51.76s-20.88,51.76-46.64,51.76S32.88,386,32.88,357.39,53.76,305.63,79.52,305.63ZM44.21,357.39c0,21.64,15.81,39.18,35.31,39.18s35.3-17.54,35.3-39.18S99,318.21,79.52,318.21,44.21,335.75,44.21,357.39Z" transform="translate(-32.88 -90.85)"/><path class="cls-13" d="M258.36,305.63c25.76,0,46.64,23.17,46.64,51.76s-20.88,51.76-46.64,51.76S211.72,386,211.72,357.39,232.61,305.63,258.36,305.63Zm-35.3,51.76c0,21.64,15.8,39.18,35.3,39.18s35.31-17.54,35.31-39.18-15.81-39.18-35.31-39.18S223.06,335.75,223.06,357.39Z" transform="translate(-32.88 -90.85)"/><path class="cls-14" d="M103.89,304.76s-1.35-6.63-7.32-3.61c-5.07,2.56-7.86,12.28-9.85,18.05-2.57,7.46-5.06,15-7.55,22.46-1.51,4.55-6.63,14.39-3.67,19.1,1.48,2.34,3.51,3.12,5.65,1.14,4.48-4.14,22.74-54.1,22.74-54.1Z" transform="translate(-32.88 -90.85)"/><polygon class="cls-1" points="68.78 191.74 23.75 189.85 25.27 185.71 25.27 185.71 40.94 179.77 80.09 175.82 68.78 191.74"/><path class="cls-1" d="M118.87,265.48,113,266.67l-17.19,5.81-11.63-1.26L86.52,253l3.7-1.66h18.51l5.56-2.63h7.4l4.47,4.8S119.4,264.32,118.87,265.48Z" transform="translate(-32.88 -90.85)"/><path class="cls-1" d="M89.08,256l3-5.08v-2.49s-5,.83-3-5.79l1.27-1.11h1.74l1.75-44.16s3.23-2.21,5.47,3.31S102,217,102,217s.24,8.56-6.72,7.18l-1.48,16.29,3.73.28v3.58l3.23,1.38,1.25,1.38,8.2-.55,2.24-2.76-3-.27s-4.23-.56-1.74-4.7,8.7-2.76,8.7-2.76,2.74.28,1.74,5.25-2.48,1.93-2.48,1.93l-2,3.31L112,248.74l-11.94.55-2.23-.83H95.33l-1.74,7.92-4.51,2Z" transform="translate(-32.88 -90.85)"/><ellipse class="cls-1" cx="97.27" cy="129.27" rx="5.82" ry="6.45"/><polygon class="cls-1" points="97.28 157.89 92.73 155.68 95 136.83 93.28 133.95 91.46 151.38 85.33 150.43 84.57 155.5 93.28 162.69 97.28 157.89"/><path class="cls-1" d="M360,258.4l-114.28-1.25-16.13,9.3-72-13s22,12.31,15.86,32.28l4.76,3.38s43.34,9.53,49.36.6,20.43-17.39,29.6-17.17c11.32.27,25.09,2.07,33.09,5,6.28,2.27,35.16-6.28,35.16-6.28l5.21-5.46H360S362.86,258.51,360,258.4Z" transform="translate(-32.88 -90.85)"/><path class="cls-6" d="M210.69,354.86s-7.94,3.31-11.79,4.14l-15.62,15.19,3.13,9.66,32.51-16.57S217.86,356,210.69,354.86Z" transform="translate(-32.88 -90.85)"/><path class="cls-6" d="M289,243.94s2.82,13.72,7.56,13.77,33.15,0,33.15,0,18.57-4.07,20.41-33.85c0,0-1.92-22.18-29.39-24.14L305,203.54l-3.7,6,19.42,25s.46,8.3,3.3,6.25-3.3,5.57-3.3,5.57Z" transform="translate(-32.88 -90.85)"/><path class="cls-15" d="M324.83,231.43l-19.34-27.21a.8.8,0,0,0-1.17-.18,8.36,8.36,0,0,0-3,5.45c-.45,3.79,19.19,21.2,21.54,23.27a.81.81,0,0,0,.53.2h.79A1,1,0,0,0,324.83,231.43Z" transform="translate(-32.88 -90.85)"/><ellipse class="cls-2" cx="293.12" cy="145.05" rx="3.23" ry="3.59"/><path class="cls-16" d="M181,161.56s39.71-5.51,36.1-30.94-26.48-23-26.48-23-37-.34-26.21,34.45c0,0,5.15,6.35,8.16,7.31" transform="translate(-32.88 -90.85)"/><path class="cls-6" d="M189.35,131.82s-3.15,12.08-5.83,11.81c0,0-1.33,8.07,4,13.13l-7,2.28s-.92,3.33,1.88,2.52a97,97,0,0,0,9.62-4.15l2.14-.65s13.9-1.91,21.12-14.34c0,0,3.77-9.63,2-14h-7.85s-6.52,10.56-10.35,10.9a48.18,48.18,0,0,1-7.57,0Z" transform="translate(-32.88 -90.85)"/><path class="cls-6" d="M188.14,128.24s-17.18-3.45-19.06-3.75-5.69-1.16-5.69-1.16,5.11-24,34.53-18.9c0,0,16.85,4.27,19.4,23.81h-7.85s-7.33,10.89-10.35,11-7.57,0-7.57,0Z" transform="translate(-32.88 -90.85)"/><path class="cls-17" d="M244.2,244.05a.19.19,0,0,1,.17.12c.69,1.78,8.35,23.54-28.72,31.23l-42.52,11.16a.21.21,0,0,0-.12.31l38.09,58.86h0l.9,1.58a.2.2,0,0,1-.16.3A26,26,0,0,0,192,360a.21.21,0,0,1-.35,0L143.08,285.6l0-.07c-.14-.78-2.42-13.65,2-15.21s48.75-20,50.7-20.83a.24.24,0,0,0,.1-.1l4.74-8.91a.2.2,0,0,1,.2-.11Z" transform="translate(-32.88 -90.85)"/><path class="cls-6" d="M187.8,169.58l12.6-13.22,6.42-3.44s17.92,8.4,24.87,23.58,8.83,25.09,8.83,25.09L252,233.68s3.47,2.67,1.87,5.88-5.62,3.21-5.62,3.21l-20.86,2.14-23.8-2.4-11-2.41-1.07-6.42-42.26,15.78-6.42-11-9.36-2.4-1.33-5.89s4.81,4.55,34.76-8.55c0,0,13.75-5.89,19.58-25.41l1.25-26.66" transform="translate(-32.88 -90.85)"/><path class="cls-18" d="M132.74,236.35l.08-4.75,22.37-4.13c6.28-1.16,12.83-2.45,17.84-6.41,5.88-4.65,8.58-12.12,11.62-19,.16-.37.39-.79.79-.85s.69.64.3.74l1.24-22.8c.12-2.26.27-4.62,1.41-6.58,1.26,2.46,4.65,2.62,7.41,2.45a168,168,0,0,1-4.54,25.18c-1.08,4.18-2.36,8.39-4.8,11.94-3.3,4.81-8.42,8-13.39,11.05a30.69,30.69,0,0,1-5.44,2.86c-1.53.57-3.16.89-4.64,1.59-3,1.41-5.11,4.21-8.08,5.63-2.72,1.29-6,1.37-8.34,3.33-1.6,1.37-3.08,3.72-5.1,3.15-1.53-2.91-5.26-3.72-8.51-4.21a8,8,0,0,0,.12-3.24" transform="translate(-32.88 -90.85)"/><path class="cls-19" d="M214.87,216.79c2-4.93,2.19-10.93,6.06-14.61l-2.38,8.62c-.89,3.25-1.74,6.92-.06,9.84a10.06,10.06,0,0,0,4.61,3.77,22.45,22.45,0,0,0,6.34,1.92,22.5,22.5,0,0,1,5.44,1.06c1.71.72,3.22,2.33,3.1,4.18l-8.11,1.79c-1.78.39-4,1.5-3.58,3.26a35.68,35.68,0,0,1,18,7.44c-5,1.53-10.4.2-15.64.15-4.14,0-8.25.74-12.39.71-6.31,0-12.45-1.94-18.47-3.82-2.46-.77-7.39-3-5.64-6.54,1.08-2.16,6.32-3.18,8.38-4.21C206.53,227.38,212.24,223.13,214.87,216.79Z" transform="translate(-32.88 -90.85)"/><path class="cls-8" d="M140,238.43a34.68,34.68,0,0,0-3-7.65,4.71,4.71,0,0,0-1.94-2.2,3.55,3.55,0,0,0-1.91-.14,17.79,17.79,0,0,1-3.34.28c-1.3-.08-2.59-.51-3.88-.68a4.17,4.17,0,0,0-3.59.9,2.3,2.3,0,0,0-.49.77,4.16,4.16,0,0,0-.11,1.58l.21,3.35c-.18-.25-.55-.1-.62.18a1.35,1.35,0,0,0,.19.86c2.06,4.57,4.51-.07,8,0C130.63,235.75,139.79,237.68,140,238.43Z" transform="translate(-32.88 -90.85)"/><path class="cls-8" d="M123.92,246.62a8.91,8.91,0,0,0,0,1.93c.36,1.15,1.81,1.16,2.89,1a1.59,1.59,0,0,0,.41,2.15,5.2,5.2,0,0,0,2.18.71,2.52,2.52,0,0,1,1.89,1.27c.13.29.17.63.33.91a1.66,1.66,0,0,0,1.91.57c1.69-.4,3-1.8,4.56-2.65a11.92,11.92,0,0,1,6.83-1.13,11.44,11.44,0,0,0,3.29.2c1.61-.37,1.5-1.88,1.25-3.16-.16-.82-.7-1.06-1.26-1.78-1.59-2-1.63-5.21-3.65-6.73s-6.09-1.33-8.49-.82c-1.39.29-2.69,1-4.1,1.15a11.21,11.21,0,0,0-2.66.13,7,7,0,0,0-1.95,1.19c-1.6,1.13-5.18,1.37-4.57,4.23A.91.91,0,0,1,123.92,246.62Z" transform="translate(-32.88 -90.85)"/><path class="cls-20" d="M150.47,263c4.89-3,10.63-4.36,15.88-6.73,7.07-3.2,13.31-8.32,20.81-10.31,2.63-.7,5.53-1.08,7.51-2.94s3.32-4.84,5.8-4.31c.25,3.53-1.84,6.89-4.61,9.09s-6.14,3.46-9.46,4.67l-21.31,7.81a53.73,53.73,0,0,0-7.73,3.29,27.33,27.33,0,0,0-9.31,8.48c-1.45,2.13-2.48,3.87-4.77,5C139.87,272.38,146.54,265.45,150.47,263Z" transform="translate(-32.88 -90.85)"/></svg>