<svg id="Layer_1" data-name="Layer 1" xmlns="http://www.w3.org/2000/svg" viewBox="0 0 437.44 433.15"><defs><style>.cls-1{fill:#f2f2f2;}.cls-2{fill:#b3b3b3;}.cls-3{fill:#ccc;}.cls-4{fill:#7dabbd;}.cls-5{fill:#e35349;}.cls-6{fill:#ff6d4a;}.cls-7{fill:#c79cb4;}.cls-20,.cls-22,.cls-23,.cls-24,.cls-8{fill:#fff;}.cls-9{fill:#999;}.cls-10{fill:#033232;}.cls-11,.cls-15{fill:#e3e3e3;}.cls-11{opacity:0.1;}.cls-12{fill:#603813;opacity:0.78;}.cls-13{fill:#926a61;}.cls-14,.cls-17{fill:none;}.cls-14{stroke:#280952;stroke-width:0.73px;}.cls-14,.cls-17,.cls-18,.cls-20{stroke-miterlimit:10;}.cls-15{opacity:0;}.cls-16{fill:#e35e59;}.cls-17,.cls-18{stroke:#333;stroke-width:0.69px;}.cls-18{fill:#033333;}.cls-19{fill:#333;}.cls-20{stroke:#000;stroke-width:0.94px;}.cls-21{fill:#db3100;}.cls-22{opacity:0.17;}.cls-23{opacity:0.83;}.cls-24{opacity:0.93;}.cls-25{fill:#4d3445;}.cls-26{fill:#7d4a22;}.cls-27{fill:#436997;}.cls-28{fill:#262e31;}.cls-29{fill:#e4edf3;}.cls-30{fill:#2e3552;}.cls-31{fill:#232020;}</style></defs><title>Illustrator-2</title><path class="cls-1" d="M53.22,343.77s-60.39-68.06,2.71-105.23c40-23.56,30.43-29.43,43.34-62,15.82-39.89,94.45-69.81,127.31-8.65,24.19,45,37.93,44.06,55.59,36.17C302.41,195,320,175.53,344,189c34.53,19.36,39.52,60.57,61.57,51.58,59-24,82.27,81.44,29.82,103.72Z" transform="translate(-27.16 61.15)"/><rect class="cls-2" x="295.05" y="220.4" width="27.22" height="161.95"/><rect class="cls-2" x="301.17" y="220.4" width="27.22" height="161.95"/><rect class="cls-3" x="301.17" y="220.36" width="27.21" height="9.36"/><rect class="cls-3" x="301.17" y="240.66" width="27.21" height="9.36"/><rect class="cls-3" x="301.17" y="260.96" width="27.21" height="9.36"/><rect class="cls-3" x="301.17" y="281.25" width="27.21" height="9.36"/><rect class="cls-3" x="301.17" y="301.55" width="27.21" height="9.36"/><rect class="cls-3" x="301.17" y="321.85" width="27.21" height="9.36"/><rect class="cls-3" x="301.17" y="342.15" width="27.21" height="9.36"/><rect class="cls-3" x="301.17" y="362.44" width="27.21" height="9.36"/><rect class="cls-2" x="338.56" y="243.32" width="27.22" height="139.04"/><rect class="cls-2" x="344.68" y="243.32" width="27.22" height="139.04"/><rect class="cls-3" x="344.68" y="243.28" width="27.21" height="8.03"/><rect class="cls-3" x="344.68" y="260.71" width="27.21" height="8.03"/><rect class="cls-3" x="344.68" y="278.13" width="27.21" height="8.03"/><rect class="cls-3" x="344.68" y="295.56" width="27.21" height="8.03"/><rect class="cls-3" x="344.68" y="312.98" width="27.21" height="8.03"/><rect class="cls-3" x="344.68" y="330.41" width="27.21" height="8.03"/><rect class="cls-3" x="344.68" y="347.84" width="27.21" height="8.03"/><rect class="cls-3" x="344.68" y="365.26" width="27.21" height="8.03"/><rect class="cls-2" x="307.49" y="316.24" width="11.4" height="20.34" transform="translate(599.21 713.97) rotate(180)"/><polygon class="cls-2" points="124.02 296.11 124.02 283.66 127.14 283.66 127.14 262.25 143.84 262.25 143.84 283.66 159.46 283.66 159.46 248.77 176.7 248.77 176.7 271.42 180.63 271.42 180.63 244.38 197.87 244.38 197.87 295.07 219.67 295.07 219.67 324.64 227.81 324.64 227.81 332.08 246.52 332.08 246.52 319.26 257.26 319.26 257.26 284.41 270.53 284.41 270.53 348.74 283.8 348.74 283.8 404.72 270.53 404.72 259.16 404.72 257.26 404.72 246.52 404.72 240.45 404.72 230.73 404.72 227.81 404.72 219.67 404.72 212.02 404.72 197.87 404.72 193.54 404.72 184.92 404.72 180.63 404.72 176.7 404.72 167.68 404.72 161.54 404.72 159.46 404.72 143.84 404.72 127.42 404.72 127.14 404.72 124.02 404.72 110.71 404.72 110.71 296.11 124.02 296.11"/><rect class="cls-3" x="257.14" y="284.76" width="13.39" height="8.04"/><rect class="cls-3" x="257.14" y="296.72" width="13.39" height="8.04"/><rect class="cls-3" x="257.14" y="308.68" width="13.39" height="8.04"/><rect class="cls-3" x="257.14" y="321.22" width="13.39" height="8.04"/><rect class="cls-3" x="257.14" y="333.37" width="13.39" height="8.04"/><rect class="cls-3" x="257.14" y="345.52" width="13.39" height="8.04"/><rect class="cls-3" x="257.14" y="358.23" width="13.39" height="8.04"/><rect class="cls-2" x="252.39" y="284.76" width="4.94" height="35.15"/><rect class="cls-2" x="236.59" y="319.91" width="9.93" height="12.94"/><rect class="cls-2" x="156.04" y="248.82" width="3.42" height="35.17"/><rect class="cls-2" x="178.53" y="244.38" width="2.1" height="27.26"/><rect class="cls-3" x="180.63" y="247.83" width="17.25" height="5.21"/><rect class="cls-3" x="180.63" y="257.62" width="17.25" height="5.21"/><rect class="cls-3" x="180.63" y="266.42" width="17.25" height="5.21"/><rect class="cls-3" x="159.47" y="266.42" width="17.25" height="5.21"/><rect class="cls-3" x="159.47" y="257.62" width="17.25" height="5.21"/><rect class="cls-3" x="159.47" y="248.82" width="17.25" height="5.21"/><rect class="cls-3" x="159.46" y="274.96" width="38.41" height="5.21"/><rect class="cls-3" x="159.46" y="283.5" width="38.41" height="5.21"/><rect class="cls-3" x="159.46" y="291.84" width="38.41" height="3.31"/><rect class="cls-3" x="213.18" y="300.64" width="2.92" height="5.04"/><rect class="cls-3" x="207.72" y="300.64" width="2.92" height="5.04"/><rect class="cls-3" x="202.38" y="300.64" width="2.92" height="5.04"/><rect class="cls-3" x="197.31" y="300.64" width="2.92" height="5.04"/><rect class="cls-3" x="192.15" y="300.64" width="2.92" height="5.04"/><rect class="cls-3" x="186.93" y="300.64" width="2.92" height="5.04"/><rect class="cls-3" x="181.47" y="300.64" width="2.92" height="5.04"/><rect class="cls-3" x="176.12" y="300.64" width="2.92" height="5.04"/><rect class="cls-3" x="171.06" y="300.64" width="2.92" height="5.04"/><rect class="cls-3" x="165.9" y="300.64" width="2.92" height="5.04"/><rect class="cls-3" x="160.52" y="300.64" width="2.92" height="5.04"/><rect class="cls-3" x="155.05" y="300.64" width="2.92" height="5.04"/><rect class="cls-3" x="149.71" y="300.64" width="2.92" height="5.04"/><rect class="cls-3" x="144.65" y="300.64" width="2.92" height="5.04"/><rect class="cls-3" x="139.48" y="300.64" width="2.92" height="5.04"/><rect class="cls-3" x="134.26" y="300.64" width="2.92" height="5.04"/><rect class="cls-3" x="128.8" y="300.64" width="2.92" height="5.04"/><rect class="cls-3" x="123.46" y="300.64" width="2.92" height="5.04"/><rect class="cls-3" x="118.39" y="300.64" width="2.92" height="5.04"/><rect class="cls-3" x="113.23" y="300.64" width="2.92" height="5.04"/><rect class="cls-3" x="213.18" y="309.54" width="2.92" height="5.04"/><rect class="cls-3" x="207.72" y="309.54" width="2.92" height="5.04"/><rect class="cls-3" x="202.38" y="309.54" width="2.92" height="5.04"/><rect class="cls-3" x="197.31" y="309.54" width="2.92" height="5.04"/><rect class="cls-3" x="192.15" y="309.54" width="2.92" height="5.04"/><rect class="cls-3" x="186.93" y="309.54" width="2.92" height="5.04"/><rect class="cls-3" x="181.47" y="309.54" width="2.92" height="5.04"/><rect class="cls-3" x="176.12" y="309.54" width="2.92" height="5.04"/><rect class="cls-3" x="171.06" y="309.54" width="2.92" height="5.04"/><rect class="cls-3" x="165.9" y="309.54" width="2.92" height="5.04"/><rect class="cls-3" x="160.52" y="309.54" width="2.92" height="5.04"/><rect class="cls-3" x="155.05" y="309.54" width="2.92" height="5.04"/><rect class="cls-3" x="149.71" y="309.54" width="2.92" height="5.04"/><rect class="cls-3" x="144.65" y="309.54" width="2.92" height="5.04"/><rect class="cls-3" x="139.48" y="309.54" width="2.92" height="5.04"/><rect class="cls-3" x="134.26" y="309.54" width="2.92" height="5.04"/><rect class="cls-3" x="128.8" y="309.54" width="2.92" height="5.04"/><rect class="cls-3" x="123.46" y="309.54" width="2.92" height="5.04"/><rect class="cls-3" x="118.39" y="309.54" width="2.92" height="5.04"/><rect class="cls-3" x="113.23" y="309.54" width="2.92" height="5.04"/><rect class="cls-3" x="213.18" y="318.29" width="2.92" height="5.04"/><rect class="cls-3" x="207.72" y="318.29" width="2.92" height="5.04"/><rect class="cls-3" x="202.38" y="318.29" width="2.92" height="5.04"/><rect class="cls-3" x="197.31" y="318.29" width="2.92" height="5.04"/><rect class="cls-3" x="192.15" y="318.29" width="2.92" height="5.04"/><rect class="cls-3" x="186.93" y="318.29" width="2.92" height="5.04"/><rect class="cls-3" x="181.47" y="318.29" width="2.92" height="5.04"/><rect class="cls-3" x="176.12" y="318.29" width="2.92" height="5.04"/><rect class="cls-3" x="171.06" y="318.29" width="2.92" height="5.04"/><rect class="cls-3" x="165.9" y="318.29" width="2.92" height="5.04"/><rect class="cls-3" x="160.52" y="318.29" width="2.92" height="5.04"/><rect class="cls-3" x="155.05" y="318.29" width="2.92" height="5.04"/><rect class="cls-3" x="149.71" y="318.29" width="2.92" height="5.04"/><rect class="cls-3" x="144.65" y="318.29" width="2.92" height="5.04"/><rect class="cls-3" x="139.48" y="318.29" width="2.92" height="5.04"/><rect class="cls-3" x="134.26" y="318.29" width="2.92" height="5.04"/><rect class="cls-3" x="128.8" y="318.29" width="2.92" height="5.04"/><rect class="cls-3" x="123.46" y="318.29" width="2.92" height="5.04"/><rect class="cls-3" x="118.39" y="318.29" width="2.92" height="5.04"/><rect class="cls-3" x="113.23" y="318.29" width="2.92" height="5.04"/><rect class="cls-3" x="213.18" y="327.6" width="2.92" height="5.04"/><rect class="cls-3" x="207.72" y="327.6" width="2.92" height="5.04"/><rect class="cls-3" x="202.38" y="327.6" width="2.92" height="5.04"/><rect class="cls-3" x="197.31" y="327.6" width="2.92" height="5.04"/><rect class="cls-3" x="192.15" y="327.6" width="2.92" height="5.04"/><rect class="cls-3" x="186.93" y="327.6" width="2.92" height="5.04"/><rect class="cls-3" x="181.47" y="327.6" width="2.92" height="5.04"/><rect class="cls-3" x="176.12" y="327.6" width="2.92" height="5.04"/><rect class="cls-3" x="171.06" y="327.6" width="2.92" height="5.04"/><rect class="cls-3" x="165.9" y="327.6" width="2.92" height="5.04"/><rect class="cls-3" x="160.52" y="327.6" width="2.92" height="5.04"/><rect class="cls-3" x="155.05" y="327.6" width="2.92" height="5.04"/><rect class="cls-3" x="149.71" y="327.6" width="2.92" height="5.04"/><rect class="cls-3" x="144.65" y="327.6" width="2.92" height="5.04"/><rect class="cls-3" x="139.48" y="327.6" width="2.92" height="5.04"/><rect class="cls-3" x="134.26" y="327.6" width="2.92" height="5.04"/><rect class="cls-3" x="128.8" y="327.6" width="2.92" height="5.04"/><rect class="cls-3" x="123.46" y="327.6" width="2.92" height="5.04"/><rect class="cls-3" x="118.39" y="327.6" width="2.92" height="5.04"/><rect class="cls-3" x="113.23" y="327.6" width="2.92" height="5.04"/><rect class="cls-3" x="213.18" y="336.49" width="2.92" height="5.04"/><rect class="cls-3" x="207.72" y="336.49" width="2.92" height="5.04"/><rect class="cls-3" x="202.38" y="336.49" width="2.92" height="5.04"/><rect class="cls-3" x="197.31" y="336.49" width="2.92" height="5.04"/><rect class="cls-3" x="192.15" y="336.49" width="2.92" height="5.04"/><rect class="cls-3" x="186.93" y="336.49" width="2.92" height="5.04"/><rect class="cls-3" x="181.47" y="336.49" width="2.92" height="5.04"/><rect class="cls-3" x="176.12" y="336.49" width="2.92" height="5.04"/><rect class="cls-3" x="171.06" y="336.49" width="2.92" height="5.04"/><rect class="cls-3" x="165.9" y="336.49" width="2.92" height="5.04"/><rect class="cls-3" x="160.52" y="336.49" width="2.92" height="5.04"/><rect class="cls-3" x="155.05" y="336.49" width="2.92" height="5.04"/><rect class="cls-3" x="149.71" y="336.49" width="2.92" height="5.04"/><rect class="cls-3" x="144.65" y="336.49" width="2.92" height="5.04"/><rect class="cls-3" x="139.48" y="336.49" width="2.92" height="5.04"/><rect class="cls-3" x="134.26" y="336.49" width="2.92" height="5.04"/><rect class="cls-3" x="128.8" y="336.49" width="2.92" height="5.04"/><rect class="cls-3" x="123.46" y="336.49" width="2.92" height="5.04"/><rect class="cls-3" x="118.39" y="336.49" width="2.92" height="5.04"/><rect class="cls-3" x="113.23" y="336.49" width="2.92" height="5.04"/><rect class="cls-3" x="213.18" y="345.25" width="2.92" height="5.04"/><rect class="cls-3" x="207.72" y="345.25" width="2.92" height="5.04"/><rect class="cls-3" x="202.38" y="345.25" width="2.92" height="5.04"/><rect class="cls-3" x="197.31" y="345.25" width="2.92" height="5.04"/><rect class="cls-3" x="192.15" y="345.25" width="2.92" height="5.04"/><rect class="cls-3" x="186.93" y="345.25" width="2.92" height="5.04"/><rect class="cls-3" x="181.47" y="345.25" width="2.92" height="5.04"/><rect class="cls-3" x="176.12" y="345.25" width="2.92" height="5.04"/><rect class="cls-3" x="171.06" y="345.25" width="2.92" height="5.04"/><rect class="cls-3" x="165.9" y="345.25" width="2.92" height="5.04"/><rect class="cls-3" x="160.52" y="345.25" width="2.92" height="5.04"/><rect class="cls-3" x="155.05" y="345.25" width="2.92" height="5.04"/><rect class="cls-3" x="149.71" y="345.25" width="2.92" height="5.04"/><rect class="cls-3" x="144.65" y="345.25" width="2.92" height="5.04"/><rect class="cls-3" x="139.48" y="345.25" width="2.92" height="5.04"/><rect class="cls-3" x="134.26" y="345.25" width="2.92" height="5.04"/><rect class="cls-3" x="128.8" y="345.25" width="2.92" height="5.04"/><rect class="cls-3" x="123.46" y="345.25" width="2.92" height="5.04"/><rect class="cls-3" x="118.39" y="345.25" width="2.92" height="5.04"/><rect class="cls-3" x="113.23" y="345.25" width="2.92" height="5.04"/><rect class="cls-2" x="168.87" y="361.04" width="67.73" height="44.37"/><rect class="cls-2" x="220.22" y="383.39" width="67.73" height="22.02"/><rect class="cls-2" x="122.88" y="306.86" width="67.73" height="37.46" transform="translate(286.32 712.32) rotate(180)"/><rect class="cls-2" x="219.45" y="366.27" width="12.62" height="8.28"/><rect class="cls-2" x="203.25" y="366.27" width="12.62" height="8.28"/><rect class="cls-2" x="187.37" y="366.27" width="12.62" height="8.28"/><rect class="cls-2" x="171.78" y="366.27" width="12.62" height="8.28"/><rect class="cls-2" x="163.07" y="361.04" width="6.5" height="44.37"/><rect class="cls-2" x="82.43" y="352.32" width="6.5" height="53.07"/><rect class="cls-2" x="115.9" y="306.86" width="6.98" height="37.38" transform="translate(211.61 712.24) rotate(180)"/><rect class="cls-2" x="267.51" y="281.26" width="0.35" height="3.5"/><rect class="cls-2" x="254.86" y="281.26" width="0.35" height="3.5"/><rect class="cls-2" x="88.73" y="352.19" width="37.28" height="53.2"/><rect class="cls-2" x="91.23" y="341.53" width="0.69" height="10.79"/><rect class="cls-2" x="79.51" y="367.11" width="46.5" height="38.27"/><rect class="cls-2" x="79.51" y="362.12" width="46.5" height="12.44"/><rect class="cls-2" x="120.45" y="378.24" width="2.39" height="4.12"/><rect class="cls-2" x="115.99" y="378.24" width="2.39" height="4.12"/><rect class="cls-2" x="111.62" y="378.24" width="2.39" height="4.12"/><rect class="cls-2" x="107.48" y="378.24" width="2.39" height="4.12"/><rect class="cls-2" x="103.26" y="378.24" width="2.39" height="4.12"/><rect class="cls-2" x="99" y="378.24" width="2.39" height="4.12"/><rect class="cls-2" x="94.53" y="378.24" width="2.39" height="4.12"/><rect class="cls-2" x="90.16" y="378.24" width="2.39" height="4.12"/><rect class="cls-2" x="86.02" y="378.24" width="2.39" height="4.12"/><rect class="cls-2" x="81.8" y="378.24" width="2.39" height="4.12"/><rect class="cls-2" x="120.45" y="385.51" width="2.39" height="4.12"/><rect class="cls-2" x="115.99" y="385.51" width="2.39" height="4.12"/><rect class="cls-2" x="111.62" y="385.51" width="2.39" height="4.12"/><rect class="cls-2" x="107.48" y="385.51" width="2.39" height="4.12"/><rect class="cls-2" x="103.26" y="385.51" width="2.39" height="4.12"/><rect class="cls-2" x="99" y="385.51" width="2.39" height="4.12"/><rect class="cls-2" x="94.53" y="385.51" width="2.39" height="4.12"/><rect class="cls-2" x="90.16" y="385.51" width="2.39" height="4.12"/><rect class="cls-2" x="86.02" y="385.51" width="2.39" height="4.12"/><rect class="cls-2" x="81.8" y="385.51" width="2.39" height="4.12"/><rect class="cls-2" x="120.45" y="392.66" width="2.39" height="4.12"/><rect class="cls-2" x="115.99" y="392.66" width="2.39" height="4.12"/><rect class="cls-2" x="111.62" y="392.66" width="2.39" height="4.12"/><rect class="cls-2" x="107.48" y="392.66" width="2.39" height="4.12"/><rect class="cls-2" x="103.26" y="392.66" width="2.39" height="4.12"/><rect class="cls-2" x="99" y="392.66" width="2.39" height="4.12"/><rect class="cls-2" x="94.53" y="392.66" width="2.39" height="4.12"/><rect class="cls-2" x="90.16" y="392.66" width="2.39" height="4.12"/><rect class="cls-2" x="86.02" y="392.66" width="2.39" height="4.12"/><rect class="cls-2" x="81.8" y="392.66" width="2.39" height="4.12"/><rect class="cls-2" x="120.45" y="365.61" width="2.01" height="4.25"/><rect class="cls-2" x="100.53" y="365.61" width="2.01" height="4.25"/><rect class="cls-2" x="84.68" y="365.61" width="2.01" height="4.25"/><rect class="cls-2" x="275.13" y="367.11" width="46.5" height="38.27"/><rect class="cls-2" x="275.13" y="362.12" width="46.5" height="12.44"/><rect class="cls-2" x="316.08" y="378.24" width="2.39" height="4.12"/><rect class="cls-2" x="311.61" y="378.24" width="2.39" height="4.12"/><rect class="cls-2" x="307.25" y="378.24" width="2.39" height="4.12"/><rect class="cls-2" x="303.11" y="378.24" width="2.39" height="4.12"/><rect class="cls-2" x="298.89" y="378.24" width="2.39" height="4.12"/><rect class="cls-2" x="294.62" y="378.24" width="2.39" height="4.12"/><rect class="cls-2" x="290.15" y="378.24" width="2.39" height="4.12"/><rect class="cls-2" x="285.79" y="378.24" width="2.39" height="4.12"/><rect class="cls-2" x="281.65" y="378.24" width="2.39" height="4.12"/><rect class="cls-2" x="277.43" y="378.24" width="2.39" height="4.12"/><rect class="cls-2" x="316.08" y="385.51" width="2.39" height="4.12"/><rect class="cls-2" x="311.61" y="385.51" width="2.39" height="4.12"/><rect class="cls-2" x="307.25" y="385.51" width="2.39" height="4.12"/><rect class="cls-2" x="303.11" y="385.51" width="2.39" height="4.12"/><rect class="cls-2" x="298.89" y="385.51" width="2.39" height="4.12"/><rect class="cls-2" x="294.62" y="385.51" width="2.39" height="4.12"/><rect class="cls-2" x="290.15" y="385.51" width="2.39" height="4.12"/><rect class="cls-2" x="285.79" y="385.51" width="2.39" height="4.12"/><rect class="cls-2" x="281.65" y="385.51" width="2.39" height="4.12"/><rect class="cls-2" x="277.43" y="385.51" width="2.39" height="4.12"/><rect class="cls-2" x="316.08" y="392.66" width="2.39" height="4.12"/><rect class="cls-2" x="311.61" y="392.66" width="2.39" height="4.12"/><rect class="cls-2" x="307.25" y="392.66" width="2.39" height="4.12"/><rect class="cls-2" x="303.11" y="392.66" width="2.39" height="4.12"/><rect class="cls-2" x="298.89" y="392.66" width="2.39" height="4.12"/><rect class="cls-2" x="294.62" y="392.66" width="2.39" height="4.12"/><rect class="cls-2" x="290.15" y="392.66" width="2.39" height="4.12"/><rect class="cls-2" x="285.79" y="392.66" width="2.39" height="4.12"/><rect class="cls-2" x="281.65" y="392.66" width="2.39" height="4.12"/><rect class="cls-2" x="277.43" y="392.66" width="2.39" height="4.12"/><rect class="cls-2" x="316.08" y="365.61" width="2.01" height="4.25"/><rect class="cls-2" x="296.15" y="365.61" width="2.01" height="4.25"/><rect class="cls-2" x="280.3" y="365.61" width="2.01" height="4.25"/><rect class="cls-2" x="324.55" y="367.11" width="46.5" height="38.27"/><rect class="cls-2" x="324.55" y="362.12" width="46.5" height="12.44"/><rect class="cls-3" x="365.5" y="378.24" width="2.39" height="4.12"/><rect class="cls-3" x="361.03" y="378.24" width="2.39" height="4.12"/><rect class="cls-3" x="356.67" y="378.24" width="2.39" height="4.12"/><rect class="cls-3" x="352.53" y="378.24" width="2.39" height="4.12"/><rect class="cls-3" x="348.31" y="378.24" width="2.39" height="4.12"/><rect class="cls-3" x="344.04" y="378.24" width="2.39" height="4.12"/><rect class="cls-3" x="339.58" y="378.24" width="2.39" height="4.12"/><rect class="cls-3" x="335.21" y="378.24" width="2.39" height="4.12"/><rect class="cls-3" x="331.07" y="378.24" width="2.39" height="4.12"/><rect class="cls-3" x="326.85" y="378.24" width="2.39" height="4.12"/><rect class="cls-3" x="365.5" y="385.51" width="2.39" height="4.12"/><rect class="cls-3" x="361.03" y="385.51" width="2.39" height="4.12"/><rect class="cls-3" x="356.67" y="385.51" width="2.39" height="4.12"/><rect class="cls-3" x="352.53" y="385.51" width="2.39" height="4.12"/><rect class="cls-3" x="348.31" y="385.51" width="2.39" height="4.12"/><rect class="cls-3" x="344.04" y="385.51" width="2.39" height="4.12"/><rect class="cls-3" x="339.58" y="385.51" width="2.39" height="4.12"/><rect class="cls-3" x="335.21" y="385.51" width="2.39" height="4.12"/><rect class="cls-3" x="331.07" y="385.51" width="2.39" height="4.12"/><rect class="cls-3" x="326.85" y="385.51" width="2.39" height="4.12"/><rect class="cls-3" x="365.5" y="392.66" width="2.39" height="4.12"/><rect class="cls-3" x="361.03" y="392.66" width="2.39" height="4.12"/><rect class="cls-3" x="356.67" y="392.66" width="2.39" height="4.12"/><rect class="cls-3" x="352.53" y="392.66" width="2.39" height="4.12"/><rect class="cls-3" x="348.31" y="392.66" width="2.39" height="4.12"/><rect class="cls-3" x="344.04" y="392.66" width="2.39" height="4.12"/><rect class="cls-3" x="339.58" y="392.66" width="2.39" height="4.12"/><rect class="cls-3" x="335.21" y="392.66" width="2.39" height="4.12"/><rect class="cls-3" x="331.07" y="392.66" width="2.39" height="4.12"/><rect class="cls-3" x="326.85" y="392.66" width="2.39" height="4.12"/><rect class="cls-2" x="365.5" y="365.61" width="2.01" height="4.25"/><rect class="cls-2" x="345.58" y="365.61" width="2.01" height="4.25"/><rect class="cls-2" x="329.73" y="365.61" width="2.01" height="4.25"/><rect class="cls-2" x="374.08" y="367.11" width="46.5" height="38.27"/><rect class="cls-2" x="374.08" y="362.12" width="46.5" height="12.44"/><rect class="cls-3" x="415.03" y="378.24" width="2.39" height="2.31"/><rect class="cls-3" x="410.57" y="378.24" width="2.39" height="2.31"/><rect class="cls-3" x="406.2" y="378.24" width="2.39" height="2.31"/><rect class="cls-3" x="402.06" y="378.24" width="2.39" height="2.31"/><rect class="cls-3" x="397.84" y="378.24" width="2.39" height="2.31"/><rect class="cls-3" x="393.57" y="378.24" width="2.39" height="2.31"/><rect class="cls-3" x="389.11" y="378.24" width="2.39" height="2.31"/><rect class="cls-3" x="384.74" y="378.24" width="2.39" height="2.31"/><rect class="cls-3" x="380.6" y="378.24" width="2.39" height="2.31"/><rect class="cls-3" x="376.38" y="378.24" width="2.39" height="2.31"/><rect class="cls-3" x="415.03" y="382.32" width="2.39" height="2.31"/><rect class="cls-3" x="410.57" y="382.32" width="2.39" height="2.31"/><rect class="cls-3" x="406.2" y="382.32" width="2.39" height="2.31"/><rect class="cls-3" x="402.06" y="382.32" width="2.39" height="2.31"/><rect class="cls-3" x="397.84" y="382.32" width="2.39" height="2.31"/><rect class="cls-3" x="393.57" y="382.32" width="2.39" height="2.31"/><rect class="cls-3" x="389.11" y="382.32" width="2.39" height="2.31"/><rect class="cls-3" x="384.74" y="382.32" width="2.39" height="2.31"/><rect class="cls-3" x="380.6" y="382.32" width="2.39" height="2.31"/><rect class="cls-3" x="376.38" y="382.32" width="2.39" height="2.31"/><rect class="cls-3" x="415.03" y="386.34" width="2.39" height="2.31"/><rect class="cls-3" x="410.57" y="386.34" width="2.39" height="2.31"/><rect class="cls-3" x="406.2" y="386.34" width="2.39" height="2.31"/><rect class="cls-3" x="402.06" y="386.34" width="2.39" height="2.31"/><rect class="cls-3" x="397.84" y="386.34" width="2.39" height="2.31"/><rect class="cls-3" x="393.57" y="386.34" width="2.39" height="2.31"/><rect class="cls-3" x="389.11" y="386.34" width="2.39" height="2.31"/><rect class="cls-3" x="384.74" y="386.34" width="2.39" height="2.31"/><rect class="cls-3" x="380.6" y="386.34" width="2.39" height="2.31"/><rect class="cls-3" x="376.38" y="386.34" width="2.39" height="2.31"/><rect class="cls-2" x="415.03" y="365.61" width="2.01" height="4.25"/><rect class="cls-2" x="395.11" y="365.61" width="2.01" height="4.25"/><rect class="cls-2" x="379.26" y="365.61" width="2.01" height="4.25"/><path class="cls-4" d="M210,268.87l-.11,0Z" transform="translate(-27.16 61.15)"/><path class="cls-5" d="M462.11,344.31a3.32,3.32,0,0,0-.15-3.63c-2-2.75-7.62.65-11.62,3.63Z" transform="translate(-27.16 61.15)"/><path class="cls-5" d="M448.77,344.31c3.79-5.2,9.81-14.73,5.94-18.41s-11.89,10.2-16,18.19c.27-6.24-.12-14.53-4.46-12.64-4.51,2-.78,7.9,1.89,12.86Z" transform="translate(-27.16 61.15)"/><path class="cls-6" d="M218.34,327.27c-12.35-.31-19.94-8.68-27.17-15.8,10.45-6.19,23.07-14,16.63-19.6-6.06-5.29-15,5.61-21.23,15.33-.58-.49-1.17-1-1.77-1.42,2.65-9.13,4-18.72-1.08-20.4-4.9-1.61-6.35,7.07-6.53,16.55-13.48-3.41-24.49-2.16-36.24,2.28s-28.64-28.52-63.31-24.8a27.79,27.79,0,0,0-9.72,2.78c-.12-11.73-1.9-26.91-10.26-26.93-13.62,0,1,20.28,2.86,25.24.77,2.05,1.39,3.89,1.88,5.52a26.54,26.54,0,0,0-2.78,3c-1.64-7.39-4.24-15-8-15.6-7.43-1.18-12.29,10.26-6.29,14.08,2.85,1.81,6.76,5.47,10.07,8.79C48,313.7,52.79,338.8,56.62,343.9l187.67,0S238.19,327.77,218.34,327.27Z" transform="translate(-27.16 61.15)"/><path class="cls-5" d="M41,344.35s3.21-10.85,18.26-7.92S81,337.31,88.38,335,99,332.5,106,335.64s9.51,9.59,32.45,3.14S172.26,327,186.57,332s31.94-4.13,49.59,4.4,44.91-6.45,58.72,7.92Z" transform="translate(-27.16 61.15)"/><path class="cls-5" d="M330.84,272.31s-.72,6.83-3,7.13-16.09,1.94-16.09,1.94-9.21-.89-11.52-15.23c0,0-.12-10.88,13.12-13.44l7.81.93,2.08,2.67L315,269.61s.17,4.05-1.3,3.22,1.86,2.51,1.86,2.51Z" transform="translate(-27.16 61.15)"/><path class="cls-7" d="M312.85,268.34,320.94,254a.4.4,0,0,1,.56-.16,4,4,0,0,1,1.73,2.47c.39,1.82-8.31,11.41-9.35,12.56a.5.5,0,0,1-.25.13l-.38,0A.46.46,0,0,1,312.85,268.34Z" transform="translate(-27.16 61.15)"/><ellipse class="cls-8" cx="285.33" cy="331.73" rx="1.58" ry="1.75"/><path class="cls-9" d="M134.74,367.34a63.13,63.13,0,0,0-23.54-1.55c8.14-1.37,16.82,1.85,24.55-1.23,2-.79,3.77-1.95,5.71-2.77,3.95-1.68,8.27-1.9,12.5-2.1q19.9-.93,39.81-1.71c5.17-.2,10.4-.39,15.45.78,4.32,1,8.43,3,12.81,3.7a43.12,43.12,0,0,0,11.62-.25c26.84-3.11,54-7.86,80.66-3.37,5.92,1,11.77,2.45,17.73,3.11,13.66,1.52,27.39-1.15,40.9-3.8l-2.82,1.69c7.54-2.44,17.6-1.23,25.1,1.34l11.91,4.09c-9,3.42-18.63,4.07-28.13,4.68s-18.84,1.21-28.11-.44c-4.66-.82-9.25-2.21-14-2.45-4.32-.21-8.63.55-12.91,1.21a291.37,291.37,0,0,1-56.9,3.16c-16.67-.71-33.29-2.86-50-2.95q-8,0-16,.54c-14.65,1.07-29.29,3.73-44,2.78C149.71,372.84,142.1,369.26,134.74,367.34Z" transform="translate(-27.16 61.15)"/><path class="cls-10" d="M158.68,271s13.45,6.07,16.07-.86S177,301.47,177,301.47l1.17,16.62L181,348.56s-4.58,3.47-6.55,0-8.52-35.32-8.52-35.32l-1.31,33.25-1.31,3.61s-2.62,2.24-4.58,0l-2-2.23L152.78,316l-4.59-38.09v-7.78Z" transform="translate(-27.16 61.15)"/><path class="cls-11" d="M178.3,297.12c-.57-9.49-1.14-19-2-28.44a5.37,5.37,0,0,0-1-3.22c-2.67-2.85-7.58,2.83-10.83.72.09,18,2,37.23,2.64,55.91.18,5,3.61,18.41,5.57,22.94,4.29,9.87,9.16,11.22,8.12-6Q179.55,318,178.3,297.12Z" transform="translate(-27.16 61.15)"/><path class="cls-12" d="M153.37,223.12s1.8,1.82,1.78,2.42A9.7,9.7,0,0,1,154,228s2.23,3.78,5.83,4.29,7.22-2.26,7.22-2.26,1.09-1.06,1.09-1.52a37,37,0,0,0-1.49-4.51l-.85-2.48s-1.36-3.93,0-3.93c1.66,0-1.78,1-3.38,1.48s-3.1,1-4.69,1.34c-1.26.26-3,.75-4.18,0a5.22,5.22,0,0,0-1-.7c-.4-.15-.86-.16-1.27-.29C152,220.66,152.7,221.89,153.37,223.12Z" transform="translate(-27.16 61.15)"/><path class="cls-13" d="M293.17,212.7s3.32-1.59,3.32-5l.11-3.94s1.12,3.59,8.2,8l-.8.93s-1.34,4.19,0,5.22c0,0-.94,0-3.24,0C299.3,217.92,293.57,217,293.17,212.7Z" transform="translate(-27.16 61.15)"/><path class="cls-13" d="M296.49,198l.15,8s4.47,5.19,6.15,5.95l1.86.83s4.2-.23,7.52-5.93l2.31-7.54c.74-2.43,1.54-6.32.76-8.8-1-3.24-6.07-5.18-9.13-5.19-1.43,0-4.68.32-5.65,1.52a23.84,23.84,0,0,0-1.81,2.23,12.66,12.66,0,0,0-1.31,4.53C297.1,195,296.46,196.56,296.49,198Z" transform="translate(-27.16 61.15)"/><line class="cls-14" x1="323.87" y1="382.83" x2="312.65" y2="358.85"/><path class="cls-15" d="M338.33,295.48s.44-3.2,3.4-2c2.51,1,4.15,5.52,5.29,8.17,1.47,3.44,2.9,6.9,4.32,10.36.87,2.1,3.64,6.56,2.36,8.91-.63,1.17-1.58,1.62-2.67.77-2.28-1.79-12.61-24.77-12.61-24.77Z" transform="translate(-27.16 61.15)"/><ellipse class="cls-16" cx="232.21" cy="401.46" rx="10.67" ry="11.85"/><path class="cls-17" d="M279,323.94s-22,6.74-19.31,18.13c.92,3.93,3.23,7.47,6.88,8.59,3.4,1,6.5-.36,9.59-1.82l18.58-8.74,6.12-2.88,1.12-1.08" transform="translate(-27.16 61.15)"/><path class="cls-18" d="M275.79,329.52l-.24-2.3.1-34.27,49.71,9.14L326,315c.13,2.75-.44,5.75-.65,8.5-.25,3.11.32,10.42-2.1,12.51a5,5,0,0,1-3.35.85l-23.41.24c-2.11,0-4.31,0-6.17-1.07,0-.6.31-2.81,0-3.25s-1-.12-1.35-.16a19.38,19.38,0,0,0-2.41,0L263,340.12l-1.83,2.19c-3.93,3.27-6.74-1.88-6.74-1.88-.42-8.73,6.74-5.3,6.74-5.3Zm15.6,5.46s24.17-.78,27.82-.63,2.53-3.74,2.53-3.74l-30.35,1.25A4.27,4.27,0,0,0,291.39,335Zm26.84-16.81s2.18,3.35,4.77,2.93V308.16s-4.49-1.85-5.33,1.72S318.23,318.17,318.23,318.17Zm-34.8,10.76,5,1.68,1.26-1.09.5-2.81-1.76-2a30.2,30.2,0,0,1-5.85,2C283.07,327.79,283.43,328.93,283.43,328.93Z" transform="translate(-27.16 61.15)"/><ellipse class="cls-16" cx="333.46" cy="401.43" rx="10.67" ry="11.85"/><path class="cls-19" d="M355.6,339.67s.14,4.67,4.64,3.9a4.59,4.59,0,0,0,3.93-5.15c-.19-1.65-.41-3.5-1.79-4.5-2.08-1.53-4.25.48-6.19,1.16-1,.37-3.32.29-4-1l-6.67-13.71s3.86-7.95,11.17-7,7.61-6.39,7.61-6.39a34.36,34.36,0,0,0-24.33,10l-5.61,8.38-3.25,2.07v1.56l6.33-.31,4.07-5.46q2.29,4.53,4.57,9.07c1,2,1.58,4.81,3.39,6.09C350.2,338.79,355.6,339.29,355.6,339.67Z" transform="translate(-27.16 61.15)"/><path class="cls-8" d="M309.85,283.76c1.93-3.79,10.54-4.08,13.72-4.17l12-.37s3.33-3.37,10,18.14l2.17,5.28A61.35,61.35,0,0,0,339.6,306c-1.45.73-3.77,1.61-4.83,3-1.21,1.56-1.44,4.35-3,5.52s-4.45.4-6.4.38c-.34-.06-.21-3.67-.37-4.15a7.27,7.27,0,0,0-3.64-4c-3.42-1.85-7.37-1.92-11.18-2a4.79,4.79,0,0,0-3.52,1.08,28,28,0,0,0-8.75,8.82c-.6,1-5.76,12-6.16,11.84-5-2.56-9.73-6.28-14.49-9.4,0,0-6.22,4.68-8.83,5.61a55.16,55.16,0,0,1-7.53,1.72l-25.77-.78s-8.11.46-11-5.31,5.43-19.91,5.64-20.26c1.93-3.29,7.12-4.17,10.23-4.73,4.34-.79,8.68-2,13.1-2.07,3.31-.06,7.13-.55,10.35.48A41.9,41.9,0,0,1,271,295c2.6,1.46,3.33,3.23,5.27,5.17,3.28,3.26,9,2.77,13.09,2.51,6.28-.4,12.62-1.3,18.85-2.22.44-.07,1.15-13.61,1.25-14.95A4.69,4.69,0,0,1,309.85,283.76Z" transform="translate(-27.16 61.15)"/><path class="cls-19" d="M386.1,339.12c0,16.15-11.79,29.24-26.34,29.24s-26.35-13.09-26.35-29.24,11.8-29.24,26.35-29.24S386.1,323,386.1,339.12ZM359.76,317c-11,0-19.95,9.91-19.95,22.13s8.93,22.13,19.95,22.13,19.94-9.91,19.94-22.13S370.77,317,359.76,317Z" transform="translate(-27.16 61.15)"/><path class="cls-18" d="M285.08,339.12c0,16.15-11.8,29.24-26.35,29.24s-26.34-13.09-26.34-29.24,11.79-29.24,26.34-29.24S285.08,323,285.08,339.12ZM258.73,317c-11,0-19.94,9.91-19.94,22.13s8.93,22.13,19.94,22.13,19.94-9.91,19.94-22.13S269.75,317,258.73,317Z" transform="translate(-27.16 61.15)"/><path class="cls-20" d="M346,309.39s.76-3.74,4.13-2c2.87,1.45,4.44,6.94,5.57,10.2,1.45,4.21,2.86,8.45,4.26,12.69.85,2.56,3.75,8.12,2.07,10.79-.83,1.32-2,1.76-3.19.64C356.3,339.33,346,311.11,346,311.11Z" transform="translate(-27.16 61.15)"/><polygon class="cls-10" points="320.08 358.02 345.52 356.95 344.66 354.61 344.66 354.61 335.81 351.26 313.7 349.02 320.08 358.02"/><path class="cls-10" d="M337.53,287.2l3.33.68,9.71,3.28,6.58-.71-1.35-10.28-2.09-.93H343.25l-3.13-1.49h-4.19l-2.52,2.71S337.23,286.55,337.53,287.2Z" transform="translate(-27.16 61.15)"/><path class="cls-10" d="M354.35,281.87l-1.7-2.87v-1.41s2.85.47,1.7-3.27l-.71-.62h-1l-1-24.95s-1.83-1.25-3.09,1.87-1.55,9.2-1.55,9.2-.13,4.83,3.8,4.05l.84,9.2-2.11.16v2l-1.83.78-.7.78-4.64-.31-1.26-1.56,1.69-.15s2.38-.31,1-2.65-4.92-1.56-4.92-1.56-1.54.15-1,3,1.4,1.09,1.4,1.09l1.13,1.87,1,1.25,6.74.31,1.27-.47h1.4l1,4.47,2.54,1.15Z" transform="translate(-27.16 61.15)"/><ellipse class="cls-10" cx="303.99" cy="322.73" rx="3.29" ry="3.65"/><polygon class="cls-10" points="303.99 338.9 306.56 337.65 305.27 327 306.25 325.37 307.27 335.22 310.73 334.69 311.16 337.55 306.25 341.61 303.99 338.9"/><path class="cls-10" d="M201.32,283.21l64.55-.71,9.12,5.25,40.65-8.23s-15.75,8.12-8.95,19.13L304,300.56s-26,5.48-27.72-.36c-1.63-5.62-11.71-9.12-16.89-9-6.39.16-14.17,1.17-18.68,2.81-3.55,1.28-19.87-3.55-19.87-3.55l-2.94-3.09H201.32S199.71,283.27,201.32,283.21Z" transform="translate(-27.16 61.15)"/><path class="cls-13" d="M324.28,260.41l.87.47a.84.84,0,0,1,.42.66,6.44,6.44,0,0,0,4.77,5.81c4.48,1.34,1.28-1.57.64-2.13a.71.71,0,0,0-.22-.13c-.71-.26-4.44-1.79-2.47-4.88,2.18-3.39,4.39-2.35,4.39-2.35h0c.76.34,1.39-.71.82-1.35-.79-.88-2.08-1.49-4.14-.63a.46.46,0,0,1-.2.05l-4.87.38a.81.81,0,0,0-.69.92l-.36,2.78C323.27,260.29,324.05,260.29,324.28,260.41Z" transform="translate(-27.16 61.15)"/><path class="cls-5" d="M295.58,211.06s-5.81,2.94,0,5.65a13.32,13.32,0,0,0,6.54,1.22c.89-.11.86-.52,1.47-.66.82-.19,1,.65,1.43,1.53a35.86,35.86,0,0,1,2.14,4.3,22.49,22.49,0,0,1,1.25,6.91,14,14,0,0,1-1.64,6.24c-.95,2.05-.37,3.48-.1,5.69l1.16,9.54s14.46,1.33,16.86,1.78-1.2,3.11-1.2,3.11l-.26,5.44-13.75,1.24H299l-.05,9.57s2.64,0,8.87,2.89c2.29,1.06,5.69,2.08,7.54,3.95-1.68.84-3.59.72-5.33,1.18,2.35,4.32,6.34,7.63,8.64,12,0,0,4.21,8-1.61,11.35l-12.63,19.81-9.33,13.27L290.36,335l3.28-11.43A99.79,99.79,0,0,1,297.15,312c1.75-4.78,3.45-10.29,8.22-12.11-.1-1.27-.27-2.68-1.15-3.48a4.12,4.12,0,0,0-1.64-.8c-6.21-1.93-12.45-4.42-18.77-5.86l-8.82-2c-4.45-1-6.23-5.35-6.26-10,0-4.48,3.25-8.25,3.25-12.25v-3.34l8-9.79,1.81-6L283,226.1S286,210.52,295.58,211.06Z" transform="translate(-27.16 61.15)"/><path class="cls-21" d="M310.12,280.87c-.46.14-.88-.29-1.19-.67-1.35-1.62-5.62-3.85-7.23-5.13,0-.25,2.74,1.13,2.77.89,1.58.79,2.58.59,3.94,1a22.57,22.57,0,0,1,3,.57,7.36,7.36,0,0,0,1.37.46c1.44.43,1.86,1.31,2.89,1.55-1.28.28-1.28.22-2.56.5-.4.09-2.65.2-2.87.59" transform="translate(-27.16 61.15)"/><path class="cls-22" d="M300.1,263.05s-9.46-13.18-6.86-39c0,0,3.87-10,10.64,0l3.78,28.71s3.8-2.76,17.89.35v1.28l-2,1.93.54,5.4S323.09,265.05,300.1,263.05Z" transform="translate(-27.16 61.15)"/><path class="cls-23" d="M294.57,250.33s5-1.57,12.12-3.12v-7.48s-10.78,1.29-13.52,3.73Z" transform="translate(-27.16 61.15)"/><path class="cls-24" d="M289.88,291.36a29.13,29.13,0,0,1,17.6-12.45s-1.35-1-3.48-2.29-15.17,3.81-15.58,8.13c0,0-3.88,3.67-3.68,5S289.88,291.36,289.88,291.36Z" transform="translate(-27.16 61.15)"/><path class="cls-24" d="M310.94,281.93l-2-1.73-4.13,1.32s-1.6-.6-8.25,4.79c0,0-4.76,5.42-3.38,6.37s5.87,1.87,5.87,1.87,1.37-7.8,6.46-9.36Z" transform="translate(-27.16 61.15)"/><path class="cls-16" d="M272.2,266.59s8.54,9.23,25.7,6h0l.82.05a.22.22,0,0,0,.23-.23l0-6.7a.24.24,0,0,0-.14-.23c-.93-.34-6.11-2.3-5.72-3.5s-2.93-16.47-2.53-18.25,2.43-18.78,2.53-19.56a.13.13,0,0,1,0-.06c.19-.52,3.08-8.06,8.25-2.82a.2.2,0,0,0,.32,0c.47-.81,1.61-3.73-4.61-6.09-5.54-2.09-3.91-3.34-2.8-3.82.2-.08.89-.53.69-.46-1.52.54-7.37-.13-11.22,11.85,0,0,0,0,0,0,0,.27-.47,3.53-2,23.6,0,0,0,0,0,0-.12.4-1.63,5.43-1.79,5.94a.2.2,0,0,1,0,.08l-3.26,4c-1.29,1.58-3,2.8-4,4.67C272.08,262.23,271.13,265.44,272.2,266.59Z" transform="translate(-27.16 61.15)"/><path class="cls-24" d="M280,252.37l1.81-6s7.08,4.89,11.36,6,1.88,0,1.88,0l3.88,8.73s-9.14.09-12.61-3.25L282,254.6Z" transform="translate(-27.16 61.15)"/><path class="cls-10" d="M288.62,338.32a52.94,52.94,0,0,0,6.34,2.22l8.39,8.16-1.68,5.2L284.2,345S284.77,338.91,288.62,338.32Z" transform="translate(-27.16 61.15)"/><polygon class="cls-25" points="90.97 291.36 95.56 291.36 99.42 302.05 94.11 302.05 90.97 291.36"/><polygon class="cls-26" points="92.73 297.36 96.6 294.25 98.2 298.67 98.2 303.81 99.42 306.75 95.19 309.69 92.73 309.69 92.73 297.36"/><path class="cls-26" d="M207.6,268.87l-3.12-3.46s-2-1.52-3-.21c-1.83,2.38-.82-7-.82-7l5.06,2.12,4.83,1.89A53.68,53.68,0,0,0,207.6,268.87Z" transform="translate(-27.16 61.15)"/><path class="cls-5" d="M241.43,275s-1.59,7.75-4.27,7.77-18.72,0-18.72,0-10.49-2.3-11.53-19.11c0,0,1.08-12.53,16.6-13.64l8.88,2.16,2.09,3.36-11,14.14s-.26,4.69-1.87,3.54,1.87,3.14,1.87,3.14Z" transform="translate(-27.16 61.15)"/><path class="cls-7" d="M221.19,268l10.92-15.37a.45.45,0,0,1,.66-.1,4.76,4.76,0,0,1,1.71,3.08c.25,2.14-10.84,12-12.17,13.14a.43.43,0,0,1-.3.11h-.44A.53.53,0,0,1,221.19,268Z" transform="translate(-27.16 61.15)"/><ellipse class="cls-8" cx="193.36" cy="331.65" rx="1.83" ry="2.03"/><path class="cls-26" d="M157.4,224.48s2.72,3.83,8.4-7.92v-1.79s1.48.51,2.23,0,0-3.58,0-3.58,1.73-3.58-1-2.81c0,0,2.47-4.85-2.72-8.43a11.07,11.07,0,0,0-7.07-1.65,17.41,17.41,0,0,0-4.09.59,5.45,5.45,0,0,0-3,2.56,14.23,14.23,0,0,0-1.71,3.89,7.47,7.47,0,0,0-.25,2.26c.05.73.51,1.39.57,2.06l.5,5.11a29.19,29.19,0,0,0,2.22,6.39C152.7,223.2,157.4,224.48,157.4,224.48Z" transform="translate(-27.16 61.15)"/><path class="cls-27" d="M146.88,208.56" transform="translate(-27.16 61.15)"/><path class="cls-28" d="M165.85,214.87l-.25-4.63,2.24-2.19a11.39,11.39,0,0,0-2.24-9.15c-3.55-4.37-11.73-1.51-11.73-1.51s-8.46,4.45-6,10.87a25.8,25.8,0,0,0,10.38-1.1C164.35,205.36,165.85,214.87,165.85,214.87Z" transform="translate(-27.16 61.15)"/><path class="cls-29" d="M153.6,228.57a11.2,11.2,0,0,0,4.92,3.1,7,7,0,0,0,4.78-.3c1.48-.67,3.22-2.85,4.58-3.68s2.62.42,3.39.65c1.34.42,4.49.3,5.55,1.39.56.58.77,2.18.93,3,.58,2.73.68,6.14-1.47,8.09-2.52,2.28-2.91,6.21-3.39,9.51-.55,3.83-1.86,8.13-.39,11.9.8,2,1.52,4.09,2.2,6.16.22.68,1.52,3.44,1.16,4s-3.28.69-3.94.82l-4.09.82c-3.48.72-6.18,3.22-9.71,3.16-2.94-.06-7.68-1.93-10.47-3.1-1.24-.52-1-.76-.84-2.45.32-2.9.62-5.87,1.21-8.72.5-2.45,1.44-4.72.95-7.29a29.72,29.72,0,0,0-2.49-7.15c-.53-1.13-1.09-2.27-1.71-3.35-.87-1.51-1.4-1-2.76-.82.64-2.34-.49-5.64-.86-8-.28-1.74-.43-1.85,1-2.49a16.44,16.44,0,0,0,4.79-3.11c1.87-1.77,4.1-3.54,6.7-2.85" transform="translate(-27.16 61.15)"/><path class="cls-5" d="M154.28,226.14l.48,2.87,1.17,19.5-3.54,26.19-1,10.77s-5.51,3.06-7-.87,2.23-21.83,2.23-21.83l-1.18-13.1.55-6.4V230.22l7.73-6.23S154.71,225.2,154.28,226.14Z" transform="translate(-27.16 61.15)"/><path class="cls-5" d="M167,223.18s2.75,3.24,0,12.68-2.63,20.94-2.63,20.94l1.93,15.72.83,14.08s12.45,1.78,11-6.22-2.75-18.19-2.75-18.19l.52-21.83s.92-9.61,0-11.06-4.59-3.15-4.59-3.15S170.43,222.61,167,223.18Z" transform="translate(-27.16 61.15)"/><path class="cls-5" d="M147.08,251.65l-8.44,17.22s-5.79,4.3-8.44-2.92-10.3-17.4-10.3-17.4,5-1.87,6.68-4.82l6.91,11.84S140,234,143.4,231.49l4.88-2.48Z" transform="translate(-27.16 61.15)"/><path class="cls-5" d="M172.88,251.35c1.13,2.43,2.38,4.81,3.73,7.09,1.51,2.52,5.49,8.3,8.32,8.17,5.21-.25,10.46-.13,15.69-.13,0,0,.24-7.64,1.69-7.56s-8.69-2.61-14.72-2.07c0,0-7.05-17.86-7.71-22.49-1-7-8.61-8.21-8.61-8.21Z" transform="translate(-27.16 61.15)"/><path class="cls-10" d="M150.85,364.1l11.41,0a2.79,2.79,0,0,0,1.48-.29,2.62,2.62,0,0,0,.89-1.17,7.69,7.69,0,0,0-1.39-8.24,6.16,6.16,0,0,0-7.63-.88l-3.72,8.74" transform="translate(-27.16 61.15)"/><path class="cls-10" d="M172.68,360.6c-.37.92.94,1.5,1.86,1.49l20.81-.14c1.09-.88.39-2.91-.79-3.62s-2.63-.72-3.88-1.29c-1.84-.84-3-2.81-4.53-4.22s-4.07-2.15-5.38-.5c-1.15,1.44-1.44,4.49-3.15,4-.8-.22-1.16-1.21-1.64-2s-1.6-1.27-2-.51L173,360" transform="translate(-27.16 61.15)"/><path class="cls-10" d="M147.51,230.72a35.91,35.91,0,0,1,.18,3.59c0,2.91,0,5.81-.14,8.72,0,.9-.63,12.73-2.11,12,0,0,2.55-1.33,1.44-.05s-.4-20.84-3.48-23.46a33.41,33.41,0,0,1,3.46-2.4C147.19,228.91,147.39,229.7,147.51,230.72Z" transform="translate(-27.16 61.15)"/><path class="cls-10" d="M173.18,226.69s-1,25.82,2.33,28.26a95.47,95.47,0,0,0,0-27.12Z" transform="translate(-27.16 61.15)"/><path class="cls-30" d="M59.23-61.15l0,0h.84l-.22,0Z" transform="translate(-27.16 61.15)"/><path class="cls-30" d="M64.68-61.15l0,0h-.84l.22,0Z" transform="translate(-27.16 61.15)"/><path class="cls-31" d="M308.07,209.84a5.06,5.06,0,0,1-4,1.09c-2.38-.25-3.74-2.53-4.12-3.65s-1.27-1.81-1.49-2.54a15.14,15.14,0,0,1-.64-5.07,20.16,20.16,0,0,1,.8-3,5.57,5.57,0,0,1,1.71-2.68c.69-.52.52-2.42.59-3.32a2.7,2.7,0,0,1,2.79-1.89,10.5,10.5,0,0,1,2.83,1.5l.07.07a2.93,2.93,0,0,0,1.85,1.24,4.54,4.54,0,0,0,2.43-.47,14.11,14.11,0,0,1,3.11-.4,1.11,1.11,0,0,1,.75,1.28h0a13.35,13.35,0,0,0-.3,2.81,22.81,22.81,0,0,0,.36,3.22c.37.51.69-3,.83-4.95.2-2.81-1.13-5.51-6.25-7.41,0,0-6.93-1.61-10.33,2.56-2.64,3.24-3.45,16.38-1.75,18.71,1.49,2,4.66,6,7.32,5.82s4.57-2.25,6.06-3.67a9.19,9.19,0,0,0,1.76-3.24,7.76,7.76,0,0,0-.86,1.7C311.24,208.33,308.48,209.54,308.07,209.84Z" transform="translate(-27.16 61.15)"/></svg>