<svg id="Layer_1" data-name="Layer 1" xmlns="http://www.w3.org/2000/svg" viewBox="0 0 420.85 186.9"><defs><style>.cls-1{fill:#333;}.cls-2,.cls-4,.cls-9{fill:#e35349;}.cls-3{fill:#fd9d7c;}.cls-4{opacity:0.7;}.cls-5{fill:#ff6d4a;}.cls-11,.cls-13,.cls-18,.cls-6,.cls-7,.cls-8{fill:none;stroke-miterlimit:10;}.cls-11,.cls-13,.cls-6,.cls-7,.cls-8{stroke:#333;}.cls-6{stroke-width:0.82px;}.cls-7{stroke-width:1.01px;}.cls-8{stroke-width:0.88px;}.cls-10,.cls-9{opacity:0.56;}.cls-11{stroke-width:0.95px;}.cls-12{opacity:0.65;}.cls-13{stroke-width:1.01px;}.cls-14{fill:#4f3b4a;}.cls-15{fill:#fd9391;}.cls-16{fill:#926a61;}.cls-17{fill:#e3e3e3;}.cls-18{stroke:#0b0754;stroke-width:0.5px;}.cls-18,.cls-19{opacity:0.23;}.cls-20{fill:#0b0754;}.cls-21{fill:#080c38;}.cls-22{fill:#050631;}.cls-23{fill:#fe837c;}.cls-24{opacity:0.82;}.cls-25{fill:#092733;}</style></defs><title>illustrator-4</title><path class="cls-1" d="M84.63,210.7c13.75-9.36,47.56-43.29,62.42-30.52,5.61,4.82,9.42,12.17,15.3,16.53,5.28-7.9,11.77-13.79,17.64-21,5.06-6.22,21.7-34.05,28.63-34.72,10.13-1,13.46,25.73,21,25.78,2.5,0,7,9.22,8.78,11.29,14.21,16.25,29,12.58,46.86,6.33,17.17-6,29.47-19.09,45.06-28.06,9.74-5.6,9.91-3.77,18.61,5.91s17.25,19.3,25.87,28.95c2.32,2.59,4.87,5.32,8.06,5.84,8.5,1.35,13.94-17.37,19.82-21.32,11.3-7.57,26.55,25.91,30.62,33.65,3.07,5.84,19.07,46.56,24.56,46.64L37,249.75Z" transform="translate(-37 -140.97)"/><path class="cls-2" d="M146.11,297.5s2.3,6.71-7.6,10.38,7.83,11,7.83,11,15.17-2.32,27.07,5.49,58.82,0,58.82,0,21-3.05,37.1-2.44,23.11,5.91,23.11,5.91,7.7.81,25.2-5.3A37.33,37.33,0,0,1,348.45,325s22.25,5.95,27.93-12.29c.86-2.76-2.47-8.4-2.19-11.69.9-10.56,13.28-14.92,3.07-24.51-4.91-4.61-15.33-11.48-23.17-10.07-19,3.43-71.45,3.3-71.45,3.3H229.43l-93.93,9.47s-28.28,2.33-24.24,14.6S146.11,297.5,146.11,297.5Z" transform="translate(-37 -140.97)"/><path class="cls-3" d="M159.41,286.43s-15.4,7,8.4,16.8,58.81,7,58.81,7,51.82,18.21,83.32,4.2,37.11-11.35,37.11-11.35,25.94-5.52-4.2-20.85-138.63-3.5-138.63-3.5S175.51,277.33,159.41,286.43Z" transform="translate(-37 -140.97)"/><path class="cls-2" d="M138.81,249.43c-5.49-8.06-6.54-15.08,1.57-22.83,1.56-1.49.3-4.35-.28-6.42-.94-3.36-3.75-6.49-2.88-9.87.62-2.44,3-4,5.12-5.3a37.34,37.34,0,0,0,3.22-15.48c0-2-.17-4,.63-5.78,1.51-3.38,5.66-4.48,9.29-5.18,3.26-.63,7.41-.9,9.12,2,.89,1.5.74,3.38.56,5.12l-1.26,12a13.49,13.49,0,0,0,.15,5.3,4.62,4.62,0,0,0,3.67,3.44c.93.08,2-.19,2.71.4a2.49,2.49,0,0,1,.71,1.71c.39,3.88-1.43,7.59-2.24,11.4a4.29,4.29,0,0,0-.05,2.19,5.41,5.41,0,0,0,2.1,2.41,25.24,25.24,0,0,1,8.16,11.72c.58,1.73.91,3.8-.18,5.27-.85,1.15-2.32,1.6-3.62,2.19s-2.65,1.63-2.66,3.06a71.07,71.07,0,0,0-9.05,2.54c-2.69.95-5.55,2.91-8.27,3.53C154.1,253.05,138.83,249.13,138.81,249.43Z" transform="translate(-37 -140.97)"/><path class="cls-4" d="M213.81,252.35c-.9-6.59-.14-8.39,1.49-11.74.53-1.08-.54-3.79-.83-5-.48-1.92-1.91-3.7-1.47-5.64a5.4,5.4,0,0,1,2.61-3,23.49,23.49,0,0,0,1.64-8.85,9.08,9.08,0,0,1,.32-3.3c.77-1.93,2.89-2.56,4.74-3,1.67-.36,3.78-.51,4.65,1.12a5.25,5.25,0,0,1,.29,2.93l-.64,6.84a8.56,8.56,0,0,0,.07,3,2.48,2.48,0,0,0,1.88,2c.47.05,1-.1,1.38.23a1.49,1.49,0,0,1,.36,1c.2,2.22-.73,4.34-1.14,6.51a2.83,2.83,0,0,0,0,1.26,3,3,0,0,0,1.07,1.37,14.57,14.57,0,0,1,4.17,6.7,3.76,3.76,0,0,1-.09,3,4.44,4.44,0,0,1-1.85,1.25,2.16,2.16,0,0,0-1.36,1.75,32.08,32.08,0,0,0-4.62,1.45c-1.37.54-2.82,1.66-4.21,2C221.61,254.42,213.82,252.18,213.81,252.35Z" transform="translate(-37 -140.97)"/><path class="cls-5" d="M233.67,257.72c-1.63-12-.26-15.22,2.69-21.29,1-2-1-6.87-1.51-9-.87-3.49-3.46-6.72-2.66-10.22.58-2.54,2.74-4.14,4.74-5.49a42.82,42.82,0,0,0,3-16c0-2-.16-4.14.58-6,1.39-3.5,5.23-4.64,8.59-5.37,3-.65,6.85-.93,8.43,2,.83,1.55.69,3.5.52,5.3L256.86,204a15.8,15.8,0,0,0,.14,5.49c.47,1.76,1.76,3.39,3.39,3.56.86.08,1.84-.19,2.51.42a2.75,2.75,0,0,1,.66,1.77c.36,4-1.33,7.86-2.08,11.81a5.12,5.12,0,0,0,0,2.27,5.52,5.52,0,0,0,1.94,2.49A26.34,26.34,0,0,1,270.93,244c.53,1.8.84,3.94-.17,5.47-.79,1.18-2.15,1.65-3.35,2.26s-2.45,1.7-2.45,3.18a59.74,59.74,0,0,0-8.38,2.62c-2.48,1-5.12,3-7.64,3.66C247.8,261.46,233.68,257.4,233.67,257.72Z" transform="translate(-37 -140.97)"/><path class="cls-2" d="M303.09,249.08a10.61,10.61,0,0,0,10-14.72c-1.48-3.51-4.89-6.44-4.67-10.24.15-2.58,2-5.11,1.16-7.54-.6-1.71-2.37-2.75-3.19-4.37-2.25-4.44,3.56-10.4.59-14.4-1.28-1.72-3.65-2.13-5.78-2.41a16,16,0,0,0-5.26-.1,5.4,5.4,0,0,0-4,3.07,12,12,0,0,0-.31,4.07c-.08,5.1-3.36,9.72-3.56,14.81-.13,3.33,1.08,6.63.73,9.95-.46,4.32-3.52,8.51-2.25,12.67,1.17,3.83,5.44,5.66,9.25,6.9s7.68,2.26,11.33,1" transform="translate(-37 -140.97)"/><line class="cls-6" x1="263.04" y1="62.19" x2="263.04" y2="118.45"/><line class="cls-6" x1="255.59" y1="73.67" x2="263.04" y2="89.46"/><line class="cls-7" x1="120.07" y1="49.27" x2="120.07" y2="134.03"/><line class="cls-6" x1="125.89" y1="77.85" x2="120.07" y2="87.09"/><line class="cls-6" x1="112.62" y1="60.75" x2="120.07" y2="76.54"/><line class="cls-8" x1="213.88" y1="59.83" x2="213.88" y2="125.03"/><line class="cls-6" x1="219.7" y1="88.41" x2="213.88" y2="97.65"/><line class="cls-6" x1="206.43" y1="71.31" x2="213.88" y2="87.1"/><path class="cls-9" d="M319.94,241.75c-5-7.38-6-13.82,1.44-20.92,1.42-1.37.26-4-.27-5.89-.86-3.08-3.43-5.94-2.64-9,.58-2.24,2.72-3.66,4.7-4.85a34.21,34.21,0,0,0,2.95-14.2c0-1.79-.15-3.66.58-5.29,1.38-3.09,5.19-4.1,8.51-4.75,3-.57,6.79-.82,8.35,1.79.83,1.38.69,3.1.52,4.7l-1.15,11a12.41,12.41,0,0,0,.13,4.86,4.23,4.23,0,0,0,3.37,3.15c.85.07,1.82-.17,2.48.37a2.27,2.27,0,0,1,.65,1.57c.36,3.55-1.31,6.95-2.05,10.44a4,4,0,0,0-.05,2,5,5,0,0,0,1.93,2.2,23.19,23.19,0,0,1,7.48,10.74c.52,1.6.83,3.49-.17,4.84-.78,1.05-2.13,1.46-3.32,2S351,238,351,239.26a65.86,65.86,0,0,0-8.3,2.32c-2.46.87-5.08,2.67-7.58,3.24C334,245.07,320,241.47,319.94,241.75Z" transform="translate(-37 -140.97)"/><g class="cls-10"><line class="cls-11" x1="298.29" y1="52.19" x2="298.29" y2="121.03"/><line class="cls-6" x1="303.62" y1="78.38" x2="298.29" y2="86.85"/><line class="cls-6" x1="291.46" y1="62.71" x2="298.29" y2="77.18"/></g><g class="cls-12"><path class="cls-2" d="M184.9,246.88c-1.2-7.91-.19-10.08,2-14.09.7-1.3-.73-4.56-1.13-6-.64-2.31-2.56-4.45-2-6.77.43-1.68,2-2.74,3.52-3.64a25.73,25.73,0,0,0,2.21-10.62,9.42,9.42,0,0,1,.42-4c1-2.31,3.89-3.07,6.38-3.55,2.24-.43,5.08-.62,6.25,1.34a5.59,5.59,0,0,1,.39,3.51l-.86,8.22a9.28,9.28,0,0,0,.1,3.64,3.15,3.15,0,0,0,2.52,2.35c.63.06,1.36-.12,1.86.28a1.71,1.71,0,0,1,.48,1.18c.28,2.65-1,5.2-1.53,7.81a3,3,0,0,0,0,1.51,3.75,3.75,0,0,0,1.44,1.65,17.34,17.34,0,0,1,5.6,8c.4,1.2.63,2.61-.12,3.62a5.73,5.73,0,0,1-2.49,1.5c-.89.41-1.81,1.12-1.82,2.11a49.72,49.72,0,0,0-6.21,1.73c-1.85.65-3.8,2-5.67,2.43C195.39,249.37,184.92,246.67,184.9,246.88Z" transform="translate(-37 -140.97)"/><line class="cls-13" x1="159.84" y1="61.57" x2="159.84" y2="125.03"/><line class="cls-13" x1="164.19" y1="93.81" x2="159.84" y2="104.23"/><line class="cls-13" x1="154.27" y1="74.52" x2="159.84" y2="92.33"/></g><path class="cls-1" d="M282.58,302.1a21.26,21.26,0,0,0,4.32-1.27,2.33,2.33,0,0,0,.92-.72,1,1,0,0,0,.07-1.11c-.49,0-.81-.54-.92-1a2.88,2.88,0,0,0-.47-1.4,1.44,1.44,0,0,0-1.53-.27,5,5,0,0,0-1.37.91,9.5,9.5,0,0,1-3.64,2,2.34,2.34,0,0,0-.9.34,1.74,1.74,0,0,0-.55.93,6,6,0,0,0-.25,3.63C279.75,303.62,280.93,302.51,282.58,302.1Z" transform="translate(-37 -140.97)"/><path class="cls-14" d="M348.7,307.86c.12.26.54.12.67-.13a5.08,5.08,0,0,1,.3-.8c.45-.6,1.36,0,1.95.42a5.6,5.6,0,0,0,4.15,1.1,2.57,2.57,0,0,0-.35-2.86A7.61,7.61,0,0,0,353,303.8l-3.4-1.81a63.24,63.24,0,0,1-2.38-10.71c-.8-6-.78-12.38-3.47-17.84a2.11,2.11,0,0,0-.79-1,1.51,1.51,0,0,0-1.92.84,4.3,4.3,0,0,0-.19,2.31l1.42,14.78a13.49,13.49,0,0,0,1.12,5,26.54,26.54,0,0,1,1.7,2.57C346.3,301.31,347.22,304.65,348.7,307.86Z" transform="translate(-37 -140.97)"/><path class="cls-15" d="M310.64,292c3.84-1.5,7.51-4.19,8.78-8.11.34-1,.49-2.12.8-3.17a22.42,22.42,0,0,1,1.18-2.93l1.14-2.51c.14-.29.33-.63.65-.64s.63.53.69,1l.88,6.43a9,9,0,0,1,.08,2.88,8.77,8.77,0,0,1-.88,2.26l-1.54,3.12a3.75,3.75,0,0,1-.73,1.11,4.2,4.2,0,0,1-2.4.79,18.69,18.69,0,0,0-9.09,3.88,1.78,1.78,0,0,1-2.91-1.38C307.25,293,309.4,292.47,310.64,292Z" transform="translate(-37 -140.97)"/><path class="cls-1" d="M154.59,306.59s13.74-5.74,16.21-4.72c-2.27-.94-6.32-3.27-7-5.86-.43-1.7,2.06-9.58.82-10.56,0,0,7.85,5.59,15.68.25,0,0,21.06,4.37,21.67,11.24s-11.29,6.57-11.29,6.57h-1.84s1.84,4.72-4.52,7-28.14,0-28.14,0l-10.86,1v-1.82s3.29.41,5.75-3.28C151.1,306.39,154,305.56,154.59,306.59Z" transform="translate(-37 -140.97)"/><path d="M178.8,291.1l6.91,7c.54.55,1.09,1.11,1.58,1.71a11.39,11.39,0,0,1,1.34,2" transform="translate(-37 -140.97)"/><path class="cls-16" d="M177.78,292.43c-.14.69-5.62.32-6.37.19a37.63,37.63,0,0,1-5.51-1.87c-2.91-1-7.55-2-9.26-4.89-1.85-3.08,2.88-20.32,2.88-20.32s3.06-7,7.48-3.9l3.39.41.62-2.26s-.55-1.21-2.46-4.51a5.51,5.51,0,0,1,2-8s5.13-2.67,8,1.23,0,9.24,0,9.24-.82,3.28-2.46,2.67-1,2.67-1,2.67,4.4.82,4.76,0,5.91,13.34,5.29,17.65,9.44,7.59,9.44,7.59l3.7,2.47v3.49H195a18.67,18.67,0,0,1-1.46-2.87,5.14,5.14,0,0,1,.19,3,13,13,0,0,1-2.31-3.65,2.36,2.36,0,0,0-.5-.87,2.08,2.08,0,0,0-.89-.41c-2.49-.7-7.6-1.2-8.76-3.33s-1.19-5.93-1.67-8.33c-.82-4.1-.41,8.63-.41,8.63l-11.9.82-2.67-1.85-.21-12.11S162,274,162,275.6c0,2.18-.93,4.32-.94,6.46,0,1.73.26,1.78,1.63,2.9,2.27,1.85,4.09,3.79,7.24,4.09,2.79.27,5.67.3,8.49.5Z" transform="translate(-37 -140.97)"/><path class="cls-17" d="M156.21,274.57s5.8,1.24,5.69,2,.9-3.27,2.54-3.27l.21,12.11s3.52,5.13,12.61,2.21l2-1.18v-7.6s2.67,0,3.08-4.72l2.26-.82s-.94-7.6-4.68-10.26h-4.76s-.43,3.69-4.73,0l-1.69-1.23s-6.56-.7-7.87,1.49S156.21,274.57,156.21,274.57Z" transform="translate(-37 -140.97)"/><path class="cls-1" d="M163.7,259.45a1.66,1.66,0,0,1-.29-1.33c.21-.93,1.24-1.74.91-2.64s-1.68-1.26-1.42-2.11,1.63-.58,2-1.31a1.72,1.72,0,0,0,.14-.81,5.73,5.73,0,0,1,3.12-4.4,16.72,16.72,0,0,1,5.37-1.56c2-.35,4.29-.64,5.93.57a6.58,6.58,0,0,1,1.54,1.78,24.54,24.54,0,0,1,3.54,8.82,4.17,4.17,0,0,1,.1,1.27c-.16,1.45-1.56,2.39-2.83,3.12l-2.49,1.44a5.92,5.92,0,0,1-1.07.53,3.09,3.09,0,0,1-3.63-1.51,5.27,5.27,0,0,0,3.78-7.83c-.69-1.21-1.89-2.23-2-3.62-.87-.71-2.22-.06-2.92.81s-1.19,2-2.16,2.57a10.82,10.82,0,0,0-2.82,2c1-2.44,2.71,3.44,2.28,4.56C169.94,262.14,165.42,260.4,163.7,259.45Z" transform="translate(-37 -140.97)"/><path class="cls-16" d="M150.82,307.38c.45-.55.68-1.26,1.16-1.78s1.41-.76,1.86-.22a10.5,10.5,0,0,1,3.59,5.12,28.27,28.27,0,0,0-5.52.12c-1.22.18-7.24,2.43-6.67-.52C145.57,308.38,149.61,308.83,150.82,307.38Z" transform="translate(-37 -140.97)"/><path class="cls-3" d="M211.65,273.75h-4.93c-.33,0-1.38-.94-1.72-1.11a13.33,13.33,0,0,0-2.84-.94c-1.19-.27-2.8.06-2.37-1.71q1.44-6,2.86-12l1.17-5s4.75-3.23,7.83-1.17a4,4,0,0,0,5.34-.56l5.13,2.74s4.72,8.9,4.1,10.75-.41,4.92-5.13,7.59A13.76,13.76,0,0,1,211.65,273.75Z" transform="translate(-37 -140.97)"/><path class="cls-18" d="M205.06,266.19l1.71-6.68-1.16,5.58a4.86,4.86,0,0,0-.13,2.14A1.69,1.69,0,0,0,207,268.6" transform="translate(-37 -140.97)"/><g class="cls-19"><path class="cls-20" d="M214.6,268a73.46,73.46,0,0,0,6.86-3l-.12.22a22.65,22.65,0,0,0-1.52-5.71l0,0a10.71,10.71,0,0,1,1.92,5.69v.17l-.14.06a65.4,65.4,0,0,1-7,2.65Z" transform="translate(-37 -140.97)"/></g><path class="cls-14" d="M212.29,245.5l-.64,6.29a4.24,4.24,0,0,0,4.69,0v-2.06h1.74s1.22-.15,1.91-2.46a15.36,15.36,0,0,0,1-3.54c.69-3.08-3.84-7.16-8.08-2.92l-.69,2.61s-.21-1.46-.57-.77-.64,1.54,0,1.93A1.16,1.16,0,0,1,212.29,245.5Z" transform="translate(-37 -140.97)"/><path class="cls-1" d="M212.91,243.81l1.31-2.08h3.08l.78-.69s.75,2.08,1.83,2.38a12.15,12.15,0,0,0,2.16.39s2.08-7.39-6.54-6.78c0,0-3.85,1.16-3.39,5Z" transform="translate(-37 -140.97)"/><path class="cls-14" d="M213.17,271.06a1.11,1.11,0,0,0,.6-.5,1.26,1.26,0,0,0,.07-.51l0-1.56a51.58,51.58,0,0,0-6.81-.12c-.16.32-.5.49-.77.73a1.93,1.93,0,0,0-.53,1.89.26.26,0,0,0,.09.16.18.18,0,0,0,.13,0,14.56,14.56,0,0,0,4.17,0C211.23,271.05,212,271.58,213.17,271.06Z" transform="translate(-37 -140.97)"/><path class="cls-5" d="M221.56,283.91l-2.83,5.23-7.08-2.61-4.69,2s-7.21-6.81-10.5-9-1.13-6.38-1.13-6.38,5-4.68,13.24,1.93S221.56,283.91,221.56,283.91Z" transform="translate(-37 -140.97)"/><path class="cls-2" d="M208.1,274S225,272.42,227,272.72a4.16,4.16,0,0,1,3.11,1.62c3.21,4.94-4.29,9.08-8,10.19-1.26.37-.1-.52-.1-.52s-15.19-9.13-15.3-10.26Z" transform="translate(-37 -140.97)"/><path class="cls-18" d="M222.53,275.87c.66-.14,1.47-.49,1.44-1.16a4.75,4.75,0,0,0-2,.08c-.38.12-.73.34-1.12.45s-.87.11-1.3.19a13.57,13.57,0,0,0-1.94.69c-1.8.6-3.89.2-5.56,1.1-.53.84,1.15.23,1.25.21,1-.22,2-.27,3.05-.42Q219.47,276.56,222.53,275.87Z" transform="translate(-37 -140.97)"/><path class="cls-14" d="M212.74,273.25c.17.16.24.4.41.54a1,1,0,0,0,.58.19,18.71,18.71,0,0,0,3.51,0,4.09,4.09,0,0,0,1.88-.5,1.62,1.62,0,0,0,.83-1.64,2.6,2.6,0,0,0-2.37-.53,39.44,39.44,0,0,1-5.21.16c-.07,0-.15,0-.19.05a.22.22,0,0,0,0,.16v1.39a.46.46,0,0,0,.21.45C212.22,273.24,212.44,273,212.74,273.25Z" transform="translate(-37 -140.97)"/><path class="cls-21" d="M222.26,288.51a2.57,2.57,0,0,0,.73.28,12.14,12.14,0,0,0,3,.37,2.36,2.36,0,0,0,1.54-.4,1.55,1.55,0,0,0,.42-1.56,2.43,2.43,0,0,0-1-1.34c-.18-.13-.37-.24-.55-.35s-.39-.25-.59-.36a6.46,6.46,0,0,0-3.55-.41c-.25,0-.7-.83-.74.15,0,.35-.51.46-.7.76-.49.75-1.22,1.3-.51,1.88.21.18.78.13,1.05.26S221.93,288.31,222.26,288.51Z" transform="translate(-37 -140.97)"/><path class="cls-22" d="M198.53,286.32a4.4,4.4,0,0,1,1.48-.75l1.23-.43a2,2,0,0,1,2.88.77c.38.5.77,1,1.11,1.54a.34.34,0,0,1,.08.21.27.27,0,0,1-.1.19,3.77,3.77,0,0,1-2.83.85l-2.06.05a3.7,3.7,0,0,1-1.37-.14A1.28,1.28,0,0,1,198.53,286.32Z" transform="translate(-37 -140.97)"/><path class="cls-16" d="M272.89,230.64s-1.76,7.42,3,8h0l.24,3.51s1.53,1.21,5.76-1v-4.75l1.59-2.2-.88-1.76-1.06-.18s.35-2.47-.18-3.53S272.89,225.3,272.89,230.64Z" transform="translate(-37 -140.97)"/><path d="M270.34,229a2.84,2.84,0,0,0,3.83,1.85c.35-.17.66-.41,1-.61a7.24,7.24,0,0,1,3.89-.87,2.19,2.19,0,0,1,1.36.32c.95.72.46,2.54,1.49,3.16a.67.67,0,0,0,.31.1c.58,0,.65-.82.87-1.36a4,4,0,0,1,.37-.63,4.37,4.37,0,0,0,0-4.64,5.84,5.84,0,0,0-5.15-2.28C275.84,224.13,269.51,225.42,270.34,229Z" transform="translate(-37 -140.97)"/><path class="cls-16" d="M268.1,254s-.44-6.7.39-6.7a2.44,2.44,0,0,1,2.53,2.62c0,2.15-.12,18.15-.12,18.15l.12,3.57s.79,4,1.55,4.55-.78,0-.78,0h-1.52s0,3,0,3.29-1.25.93-1.25.93h-2a18,18,0,0,1-.62-5.73l1.62-4.24A100,100,0,0,1,268.1,254Z" transform="translate(-37 -140.97)"/><path class="cls-2" d="M292.26,282.75c2.73-.75,11.05-1.52,13.55-.07.29,2.06.46,2,.75,4.11-4.33,2.31-12.77,2.85-17.54,3.39-1.88.21-5.69.68-7.57.95-5.65.82-11.21,2.1-16.86,1.59-3.53-.32-1.09-9.11-.3-11.41a56.27,56.27,0,0,1,5-10,3,3,0,0,1,1-1.15c.61-.36,1.82.59,2.29.7,6.3,1.44,11.33,1.31,17.49,1.6,2.27.11,4.26-.11,4.32,2.85C294.4,276.77,293.9,282.3,292.26,282.75Z" transform="translate(-37 -140.97)"/><path class="cls-17" d="M270.89,243.81s-3.41.55-2.79,10.16l2.79,1.92s-.62,16.81,0,13.93c0-.07,0-.07,0-.07s-2.47,3.57,13.85,4.33l5.69-10.31s-1.07-4.71-1.22-5.52-.47-5.72-.47-5.72a13.74,13.74,0,0,1,6.16,0s-1.08-8-5.23-9.88a41.93,41.93,0,0,0-7.24-2.51s-2.31,2.6-7.39,1.4Z" transform="translate(-37 -140.97)"/><path class="cls-17" d="M283.84,274s8.9-7.49,8.6-10,1.76,7.84,1.76,7.84l-.05.79S286.11,275.31,283.84,274Z" transform="translate(-37 -140.97)"/><path class="cls-16" d="M288,251.1l2.46,12.67-5.7,8.48H278s-.4,1.2,1.47.43-.16,2-.16,2l-2.15,1.51V277l1.69-.82-.85,1.5,1,1H280v.8l5.7-4.3,9.23-8.94.77-4.47s-.92-7.73-2-10.64a49.49,49.49,0,0,0-2.92-6.12S287.05,246.43,288,251.1Z" transform="translate(-37 -140.97)"/><path class="cls-17" d="M287.34,252.53s6.46-1.52,7.54,0-.08-5.21-2.65-7.54c-1.67-1.51-3.65-.06-4.41,1.63C287.45,247.42,287.71,252.44,287.34,252.53Z" transform="translate(-37 -140.97)"/><path class="cls-1" d="M314.23,283.3a4.51,4.51,0,0,1,2,2.43.49.49,0,0,1-.15.77l-.67.51a6.15,6.15,0,0,1-1.48.91,5.68,5.68,0,0,1-3.65-.25,2.65,2.65,0,0,1-1-.48c-.58-.5-.66-1.36-1-2a2.58,2.58,0,0,0-1.47-1.26c-.29-.1-.63-.17-.78-.43a1,1,0,0,1,.16-1c.94-1.67,1.89-3,3.85-1.77.57.36.88,1.06,1.4,1.48C312.36,282.88,313.2,282.87,314.23,283.3Z" transform="translate(-37 -140.97)"/><path class="cls-18" d="M279,285.45c3.2.26,6.83-2.29,10-2.73,1.52-.22-1.42-.43,0,0" transform="translate(-37 -140.97)"/><path class="cls-14" d="M329.67,256.2s-3.69,1.69,0,9.54h1.23l-.61,3.93s.31,3,7.54-.65h-.77v-5s2.16.07,1.7-1.83.61-1.56.61-1.56l-1.54.16s1.85-5.08-1.08-6S329.21,255.12,329.67,256.2Z" transform="translate(-37 -140.97)"/><path class="cls-17" d="M321.05,277.66l1.85,1a2,2,0,0,1,2.31,2.22c0,8.68-.62,10.27-.62,10.27s11.55,3.85,13.09,0l.92.16.77-8.83s.46-4.71,1.69-1v1s7.34.08,6-1c-1.54-1.26-.77-9.46-4.62-11a10.37,10.37,0,0,0-6.77-.59s-2.62,3.17-6.31-.15-6.93,5-6.93,5Z" transform="translate(-37 -140.97)"/><path class="cls-1" d="M335.73,262c.4.67,1.08,1.44,1.8,1.13.51-.22,1.06-.93,1.43-.51a1.74,1.74,0,0,1-.47,2,15.31,15.31,0,0,1-1.85,1.3,5.06,5.06,0,0,0-2,4.4c3.33-.94,7,1.1,8.81,4s2.22,6.55,2.19,10a2.94,2.94,0,0,0,4.37-1.27,2.17,2.17,0,0,1,.58-1.17,3,3,0,0,1,1.13-.28,2.35,2.35,0,0,0,1.65-2.27,6.34,6.34,0,0,0-.8-2.89,2.66,2.66,0,0,1-.32-2.33c.36-.65,1.21-.89,1.61-1.51.57-.91-.09-2.13-.95-2.78a15,15,0,0,1-2.64-1.85c-1.83-2.17-.06-6.05-2.07-8.06-1.16-1.17-3-1.1-4.66-.95l-3.41.3c-.33-.78,0-1.72-.27-2.51a2.93,2.93,0,0,0-1-1.16,9.3,9.3,0,0,0-9-1.44,7,7,0,0,0-4.12,7.76,2.54,2.54,0,0,1,.16,1.24,6.82,6.82,0,0,1-.48.93c-.41.93.16,2,.71,2.83l1,1.52a3.61,3.61,0,0,1,.45.9,4.09,4.09,0,0,0,.17.69c.36.74,1.59.52,2-.19a3.43,3.43,0,0,0,.09-2.41c-.57.43-1.27-.37-1.5-1a14,14,0,0,1-.65-6.25l.57.51c-.26-.24,3.26-3.79,4-3.73C333.76,257.13,335.06,260.87,335.73,262Z" transform="translate(-37 -140.97)"/><path class="cls-2" d="M331.83,305.62l15.4,5.8s-3.24,2.82-2.32,3.74a10.43,10.43,0,0,1-2.48.49c-2.31.18-4.65.18-7,.16-6.61-.06-21.88.46-22.1-9.12,0,0-8.32-.15-10.17-4.46S306,295,306,295s10.94-3.69,18.63-3.85c0,0,10.09,3.62,12.59.74l1.42-.58c.24,2.73,2,7,.63,9.61C338.62,302.09,332.8,306.08,331.83,305.62Z" transform="translate(-37 -140.97)"/><path class="cls-14" d="M355.52,311.93s6.08,5.3,8.22,5.45-.78,1.11-.78,1.11l-11.83-1.94S351.77,312.55,355.52,311.93Z" transform="translate(-37 -140.97)"/><path class="cls-2" d="M248.54,243.33s1.29,13.78,19.48,18.73,10.45,44,10.45,44-4.6,12.49-19,9.69h-17.1s-16.78-2.8-7.76-23c0,0,2.22-6.67,12.82-14.37,0,0,4.44-.95.32-16.38S248.54,243.33,248.54,243.33Z" transform="translate(-37 -140.97)"/><path class="cls-23" d="M245.62,307.77s-7.08-7.39,1.23-14.78a65.53,65.53,0,0,0,7-7.07c1.11-1.35,3.17-3.44,2.94-5.29-.49-3.93-1.4-8.07-1.4-12,0-1.32,21.58,15,16,29.87-4.31,11.42-8.88,10.86-8.88,10.86Z" transform="translate(-37 -140.97)"/><path class="cls-1" d="M230.63,306.47c-1.81-.31-3.77-.62-5.44.16a5.8,5.8,0,0,1-1.25.55,1.11,1.11,0,0,1-1.21-.41,1.41,1.41,0,0,1-.15-.61,10.4,10.4,0,0,1,.42-3.84,3,3,0,0,1,.7-1.29c.83-.76,2.13-.48,3.21-.15a13.82,13.82,0,0,1,2.7,1,4.39,4.39,0,0,0,.82.39,3.3,3.3,0,0,0,1.29,0,13.76,13.76,0,0,1,7,.93,6.49,6.49,0,0,1-.2,2.36C237.57,309,233.11,306.91,230.63,306.47Z" transform="translate(-37 -140.97)"/><path class="cls-1" d="M224.4,315.66c-.5,0-1.09,0-1.35-.47a1.41,1.41,0,0,1-.15-.7,7.1,7.1,0,0,1,.5-3.78,5.51,5.51,0,0,1,1.44-1.6,12.11,12.11,0,0,1,5.93-2.53,4.18,4.18,0,0,1,2.43.24,3.38,3.38,0,0,1,1.65,2.11,10.4,10.4,0,0,1,.34,2.72l.06,1.89C235.37,317.18,226.46,315.66,224.4,315.66Z" transform="translate(-37 -140.97)"/><path class="cls-1" d="M250,315.29a8.77,8.77,0,0,0-1.75-5c-1.9-2.24-5.18-2.63-8.11-2.62a10.09,10.09,0,0,0-3.75.52,11.18,11.18,0,0,0-2.39,1.48l-2.58,1.92a3.08,3.08,0,0,0-.63.56,3,3,0,0,0-.44,1.24c-.33,1.63-.55,3.6.7,4.7a4.89,4.89,0,0,0,3.44.74l10.57-.42C248.29,318.25,250,318.94,250,315.29Z" transform="translate(-37 -140.97)"/><path class="cls-1" d="M250.65,313.31A5.56,5.56,0,0,1,253.6,311a25.28,25.28,0,0,1,4.38-1.18,6.34,6.34,0,0,1,3.95.05,6.48,6.48,0,0,1,1.67,1.34l2.31,2.33a6.13,6.13,0,0,1,1.45,1.91,2.09,2.09,0,0,1-.33,2.25,91.33,91.33,0,0,1-11.2,1.1C252.23,318.84,248.15,317.92,250.65,313.31Z" transform="translate(-37 -140.97)"/><path class="cls-1" d="M266.36,317.51c.61.77,1.77.73,2.75.63l7.76-.85,5.2-.57a2,2,0,0,0,1.12-.35,2,2,0,0,0,.35-1.81,19,19,0,0,0-2-5.89,2.39,2.39,0,0,0-.56-.77,2.2,2.2,0,0,0-1-.39,6.53,6.53,0,0,0-4.3.6c-.73.38-1.38.89-2.09,1.31-1.45.87-3.11,1.32-4.62,2.09C267,312.51,264.5,315.19,266.36,317.51Z" transform="translate(-37 -140.97)"/><path class="cls-1" d="M290.78,314.64a6.61,6.61,0,0,0,2.55-.38,2.55,2.55,0,0,0,1.35-2.64,5,5,0,0,0-2-2.69l-1.66-1.44a4.74,4.74,0,0,0-1.39-.92,4.16,4.16,0,0,0-1.76-.12,5.35,5.35,0,0,0-2.16.51,5.86,5.86,0,0,0-1.22,1l-1.59,1.48c-.43.41-.92,1-.71,1.54a2,2,0,0,0,.6.71,3.27,3.27,0,0,1,1,1.88c.09.57.07,1.25.53,1.59C286,316.33,289.07,314.74,290.78,314.64Z" transform="translate(-37 -140.97)"/><path class="cls-1" d="M226.28,294.44l3.64-3.3,5,3.3s-1.73,3.79-2.08,5S226.28,294.44,226.28,294.44Z" transform="translate(-37 -140.97)"/><path class="cls-18" d="M314.17,305.58c-.29-.86.33-1.74.94-2.41a26.36,26.36,0,0,1,6-4.88c1.75-1,3.73-2,4.68-3.79" transform="translate(-37 -140.97)"/><path class="cls-5" d="M75,222.5s25,8,51.07,0c0,0,18.52,31,25.53,35.3s-2.5,1.24-2.5,1.24l-22-27s-13.52,26.58-26.61,36.29L55.83,257.8Z" transform="translate(-37 -140.97)"/><polygon class="cls-5" points="66.04 142.11 111.61 131.1 112.11 118.07 89.82 81.81 65.86 124.04 66.04 142.11"/><path class="cls-2" d="M107.05,269.56S127.25,241,126.41,230c0,0,13,32.54,17.69,35.07S110.55,279.58,107.05,269.56Z" transform="translate(-37 -140.97)"/><g class="cls-24"><path class="cls-25" d="M127.08,232s-7,41.33-6.76,41.31,14.38-2.88,14.38-2.88Z" transform="translate(-37 -140.97)"/></g><polygon class="cls-2" points="33.88 130.85 66.04 142.11 65.86 126.53 24.49 115.58 24.49 127.33 33.88 130.85"/><path class="cls-2" d="M120.36,234.72c1.67-4.25,3.11-8.83,6.46-11.94,5.81,9.13,11.67,18.33,19.08,26.22,2.68,2.85,5.77,6.12,5.32,10-2.82-.53-4.86-2.93-6.66-5.17l-4.2-5.24c-4.85-6.05-9.71-12.11-14-18.6-4.51,14.77-15.43,26.64-25.94,37.51-2-3.82,7.61-11.39,9.93-14.59A75.93,75.93,0,0,0,120.36,234.72Z" transform="translate(-37 -140.97)"/><path class="cls-5" d="M429.63,216.57s-24.78,8.76-51.05,1.54c0,0-17.58,31.59-24.46,36s2.54,1.17,2.54,1.17l21.21-27.68s14.31,26.16,27.69,35.47l44.29-11.85Z" transform="translate(-37 -140.97)"/><polygon class="cls-5" points="366.43 137 320.56 127.37 319.66 114.36 340.84 77.45 366.07 118.93 366.43 137"/><path class="cls-2" d="M399,264.58s-21.06-28-20.55-39c0,0-12,32.92-16.62,35.58S395.82,274.69,399,264.58Z" transform="translate(-37 -140.97)"/><g class="cls-24"><path class="cls-25" d="M377.87,227.65s8.19,41.1,8,41.09-14.46-2.45-14.46-2.45Z" transform="translate(-37 -140.97)"/></g><polygon class="cls-2" points="398.24 124.77 366.43 137 366.14 121.42 407.17 109.22 407.52 120.97 398.24 124.77"/><path class="cls-2" d="M384.66,230.16c-1.8-4.2-3.38-8.74-6.82-11.74-5.53,9.3-11.11,18.67-18.27,26.78-2.59,2.93-5.59,6.29-5,10.16,2.81-.62,4.78-3.08,6.51-5.37l4-5.36c4.67-6.2,9.34-12.4,13.38-19,4.95,14.63,16.23,26.16,27.06,36.71,1.89-3.88-7.95-11.16-10.37-14.29A75.91,75.91,0,0,1,384.66,230.16Z" transform="translate(-37 -140.97)"/></svg>