<svg id="Layer_1" data-name="Layer 1" xmlns="http://www.w3.org/2000/svg" xmlns:xlink="http://www.w3.org/1999/xlink" viewBox="0 0 476.03 301.88"><defs><style>.cls-1,.cls-28{fill:#606060;}.cls-2{fill:#e6e6e6;}.cls-3{fill:#d68f60;}.cls-22,.cls-39,.cls-4{fill:#e35349;}.cls-5{fill:#333;}.cls-14,.cls-30,.cls-6{opacity:0;}.cls-7{clip-path:url(#clip-path);}.cls-8{fill:#7a3909;}.cls-28,.cls-39,.cls-9{opacity:0.35;}.cls-10{fill:#033232;}.cls-11,.cls-14,.cls-26,.cls-34,.cls-36,.cls-37{fill:#fff;}.cls-11{opacity:0.9;}.cls-12{fill:#cb9570;}.cls-13{fill:#262e31;}.cls-15,.cls-18,.cls-20{fill:#fd9d7c;}.cls-16,.cls-29,.cls-32{fill:none;}.cls-17{fill:#ff6d4a;}.cls-18{opacity:0.24;}.cls-19{fill:#926a61;}.cls-20{opacity:0.28;}.cls-21{fill:#4f3b4a;}.cls-22{opacity:0.68;}.cls-23{fill:#063354;}.cls-24{fill:#1a5da1;}.cls-25{fill:#d99b14;opacity:0.16;}.cls-27,.cls-37{opacity:0.93;}.cls-29{stroke:#280952;stroke-width:0.52px;}.cls-29,.cls-32,.cls-33,.cls-34{stroke-miterlimit:10;}.cls-30{fill:#e3e3e3;}.cls-31{fill:#e35e59;}.cls-32,.cls-33{stroke:#333;stroke-width:0.49px;}.cls-33{fill:#033333;}.cls-34{stroke:#000;stroke-width:0.67px;}.cls-35{fill:#db3100;}.cls-36{opacity:0.83;}.cls-38{fill:#c79cb4;}</style><clipPath id="clip-path" transform="translate(-10.19 -74.5)"><path class="cls-1" d="M40.1,356.11,147.5,356l7.26,0,236.11-.77,77.88-.25s29.44-51.82,11.89-104a101.08,101.08,0,0,0-6.64-15.4,105.18,105.18,0,0,0-6.16-10.11l-.71-1a114.48,114.48,0,0,0-11.49-13.76c-33.42-34.26-64.24-38.91-89.52-36.58-20.17,1.86-36.82,8.16-48.46,7.4-26.22-1.71-34.63-55.66-112.19-71.93a249.7,249.7,0,0,0-50.19-5.15c-48.5-.06-96.84,14.46-103.2,54.53a64,64,0,0,0,0,19,93.9,93.9,0,0,0,3.56,15.43c3.18,10.09,8.24,21.19,15.44,33.37,23,38.9,4.19,56.65-23,72.08-1.12.63-2.23,1.28-3.34,1.95C25.3,312.41,40.1,356.11,40.1,356.11Z"/></clipPath></defs><title>illustration-1</title><path class="cls-2" d="M31.22,356.11,138.61,356l7.27,0,236.1-.77,77.88-.25s29.44-51.82,11.89-104a101.08,101.08,0,0,0-6.64-15.4A105.05,105.05,0,0,0,459,225.42l-.72-1a113.55,113.55,0,0,0-11.49-13.76c-33.42-34.26-64.23-38.91-89.52-36.58-20.17,1.86-36.82,8.16-48.46,7.4-26.22-1.71-34.62-55.66-112.19-71.93a249.7,249.7,0,0,0-50.19-5.15c-48.5-.06-96.84,14.46-103.2,54.53a64,64,0,0,0,0,19,93.9,93.9,0,0,0,3.56,15.43c3.18,10.09,8.24,21.19,15.45,33.37,23,38.9,4.18,56.65-23,72.08q-1.68.94-3.33,1.95C16.41,312.41,31.22,356.11,31.22,356.11Z" transform="translate(-10.19 -74.5)"/><path class="cls-3" d="M452.07,236.55a14,14,0,0,0,.47-3.61c0-5.69-3.3-10.3-7.36-10.3a5.37,5.37,0,0,0-1.73.29c-.66-15.39-7.4-27.49-15.62-27.49-7.82,0-14.31,11-15.48,25.31-5.82,4-9.81,12.05-9.81,21.4a30.27,30.27,0,0,0,2.49,12.2c-5.41,3.33-8.85,8.35-8.85,14,0,10,11,18.15,24.48,18.15,10.12,0,18.8-4.56,22.53-11.05a14.08,14.08,0,0,0,3.2.37c9.2,0,16.66-9.05,16.66-20.22C463.05,246.82,458.47,239.37,452.07,236.55Z" transform="translate(-10.19 -74.5)"/><path class="cls-4" d="M452.07,236.55s-16.21-6.3-28.56,4.81S402.56,235,406.69,226.8a29.18,29.18,0,0,0-4.15,15.35,30.27,30.27,0,0,0,2.49,12.2c-5.41,3.33-8.85,8.35-8.85,14,0,10,11,18.15,24.48,18.15,10.12,0,18.8-4.56,22.53-11.05a14.08,14.08,0,0,0,3.2.37c9.2,0,16.66-9.05,16.66-20.22C463.05,246.82,458.47,239.37,452.07,236.55Z" transform="translate(-10.19 -74.5)"/><path class="cls-5" d="M433.15,355.42c-.72,0-1.29-.19-1.29-.91V214.35a1.29,1.29,0,1,1,2.58,0V354.51C434.44,355.23,433.86,355.42,433.15,355.42Z" transform="translate(-10.19 -74.5)"/><path class="cls-5" d="M433.15,264.13a12.29,12.29,0,0,1-9.23-3.88c-6.86-7.22-6.2-22-6.17-22.58a1.29,1.29,0,1,1,2.58.13h0c0,.14-.63,14.26,5.47,20.67a9.63,9.63,0,0,0,7.35,3.07,1.3,1.3,0,0,1,0,2.59Z" transform="translate(-10.19 -74.5)"/><path class="cls-5" d="M433.33,293.48h-.26a1.29,1.29,0,1,1,.16-2.58,2,2,0,0,0,1.5-.65c1.6-1.43,4.64-6.47,7-24.14,1.36-10.22,1.83-19.75,1.83-19.84a1.3,1.3,0,0,1,2.59.12c0,.1-.48,9.74-1.86,20.06a122.65,122.65,0,0,1-2.87,15.28c-1.43,5.32-3.05,8.74-5,10.45A4.63,4.63,0,0,1,433.33,293.48Z" transform="translate(-10.19 -74.5)"/><path class="cls-3" d="M113.84,210.47a16.35,16.35,0,0,0,.54-4.21c0-6.62-3.83-12-8.56-12a6.19,6.19,0,0,0-2,.34c-.77-17.92-8.62-32-18.19-32-9.11,0-16.66,12.78-18,29.48-6.78,4.6-11.43,14-11.43,24.9a35.24,35.24,0,0,0,2.9,14.21c-6.29,3.87-10.3,9.72-10.3,16.26,0,11.67,12.76,21.13,28.5,21.13,11.78,0,21.89-5.3,26.23-12.86a16.41,16.41,0,0,0,3.73.43c10.71,0,19.39-10.54,19.39-23.54C126.62,222.43,121.29,213.75,113.84,210.47Z" transform="translate(-10.19 -74.5)"/><path class="cls-4" d="M113.84,210.47s-18.87-7.34-33.25,5.6-24.38-7.47-19.59-17A34.05,34.05,0,0,0,56.17,217a35.24,35.24,0,0,0,2.9,14.21c-6.29,3.87-10.3,9.72-10.3,16.26,0,11.67,12.76,21.13,28.5,21.13,11.78,0,21.89-5.3,26.23-12.86a16.41,16.41,0,0,0,3.73.43c10.71,0,19.39-10.54,19.39-23.54C126.62,222.43,121.29,213.75,113.84,210.47Z" transform="translate(-10.19 -74.5)"/><path class="cls-5" d="M91.66,348.85c-.74,0-1.34-.2-1.34-.94V202.32a1.34,1.34,0,1,1,2.68,0V347.91C93,348.65,92.4,348.85,91.66,348.85Z" transform="translate(-10.19 -74.5)"/><path class="cls-5" d="M91.66,254a12.78,12.78,0,0,1-9.59-4c-7.12-7.5-6.44-22.81-6.41-23.46a1.35,1.35,0,0,1,2.69.14h0c0,.15-.66,14.81,5.67,21.47a10,10,0,0,0,7.64,3.19,1.35,1.35,0,0,1,0,2.69Z" transform="translate(-10.19 -74.5)"/><path class="cls-5" d="M91.85,284.51h-.27a1.35,1.35,0,0,1,.16-2.69,2.19,2.19,0,0,0,1.57-.67c1.66-1.49,4.81-6.72,7.26-25.07,1.41-10.62,1.9-20.51,1.91-20.61a1.33,1.33,0,0,1,1.4-1.28,1.35,1.35,0,0,1,1.28,1.41c0,.1-.5,10.11-1.93,20.83a125.34,125.34,0,0,1-3,15.87c-1.48,5.53-3.17,9.08-5.15,10.85A4.79,4.79,0,0,1,91.85,284.51Z" transform="translate(-10.19 -74.5)"/><g class="cls-6"><path class="cls-1" d="M40.1,356.11,147.5,356l7.26,0,236.11-.77,77.88-.25s29.44-51.82,11.89-104a101.08,101.08,0,0,0-6.64-15.4,105.18,105.18,0,0,0-6.16-10.11l-.71-1a114.48,114.48,0,0,0-11.49-13.76c-33.42-34.26-64.24-38.91-89.52-36.58-20.17,1.86-36.82,8.16-48.46,7.4-26.22-1.71-34.63-55.66-112.19-71.93a249.7,249.7,0,0,0-50.19-5.15c-48.5-.06-96.84,14.46-103.2,54.53a64,64,0,0,0,0,19,93.9,93.9,0,0,0,3.56,15.43c3.18,10.09,8.24,21.19,15.44,33.37,23,38.9,4.19,56.65-23,72.08-1.12.63-2.23,1.28-3.34,1.95C25.3,312.41,40.1,356.11,40.1,356.11Z" transform="translate(-10.19 -74.5)"/><g class="cls-7"><path class="cls-1" d="M460.94,351.79c-.64,0-1.15,0-1.15-.64V254a1.15,1.15,0,1,1,2.3,0v97.17C462.09,351.79,461.58,351.79,460.94,351.79Z" transform="translate(-10.19 -74.5)"/><path class="cls-1" d="M460.94,286.41a10.91,10.91,0,0,1-8.23-3.46c-6.13-6.44-5.54-19.59-5.51-20.15a1.14,1.14,0,0,1,1.21-1.09,1.15,1.15,0,0,1,1.1,1.21c0,.13-.57,12.72,4.87,18.44a8.61,8.61,0,0,0,6.56,2.75,1.15,1.15,0,1,1,0,2.3Z" transform="translate(-10.19 -74.5)"/><path class="cls-8" d="M461.87,324.18h-.23a1.15,1.15,0,1,1,.14-2.3,1.81,1.81,0,0,0,1.34-.58c1.43-1.27,4.13-5.77,6.24-21.54,1.22-9.11,1.63-17.61,1.64-17.7a1.15,1.15,0,1,1,2.3.11c0,.09-.42,8.69-1.65,17.9a111.22,111.22,0,0,1-2.56,13.63c-1.28,4.75-2.73,7.8-4.43,9.32A4.1,4.1,0,0,1,461.87,324.18Z" transform="translate(-10.19 -74.5)"/></g></g><path class="cls-4" d="M403.2,338c-15.14,5.15-43,18.37-75.05,9.39S258.2,346.24,210.57,356l-.7.13,264.38-.37C453.93,332.75,426.5,330.1,403.2,338Z" transform="translate(-10.19 -74.5)"/><g class="cls-9"><path class="cls-1" d="M114.94,82h2.59l0-.21-.78-6.88a.44.44,0,0,0-.44-.39h-.08a.72.72,0,0,0-.61.62Z" transform="translate(-10.19 -74.5)"/><path class="cls-1" d="M117.28,80.41h.09l-.65-5.53a.44.44,0,0,0-.44-.39h-.08l-.07.07A.68.68,0,0,0,116,75l0,4A1.39,1.39,0,0,0,117.28,80.41Z" transform="translate(-10.19 -74.5)"/><rect class="cls-1" x="103.09" y="38.11" width="4.99" height="219.78"/><rect class="cls-1" x="105.78" y="38.11" width="2.31" height="219.78"/><rect class="cls-1" x="97.64" y="222.82" width="15.9" height="58.15"/><rect class="cls-1" x="104.06" y="222.82" width="9.48" height="58.15"/><path class="cls-1" d="M107.09,85.29c0,2.72,4.09,4.92,9.14,4.92.39,0,.76,0,1.14,0,4.51-.3,8-2.37,8-4.88s-3.49-4.57-8-4.87c-.38,0-.75,0-1.14,0C111.18,80.38,107.09,82.58,107.09,85.29Z" transform="translate(-10.19 -74.5)"/><polygon class="cls-1" points="97.66 42.45 113.56 42.45 119.17 15.54 92.91 15.54 97.66 42.45"/><rect class="cls-1" x="91.49" y="13.51" width="29.1" height="2.58"/><path class="cls-1" d="M121.13,297.32H111l1.48-4.49a1,1,0,0,1,.93-.67h4.76a1.27,1.27,0,0,1,1.18.79Z" transform="translate(-10.19 -74.5)"/><path class="cls-1" d="M111.76,85.06h.07c.16-2.09,2.39-3.86,5.54-4.64,4.37.29,7.78,2.24,8,4.64h1.48l2.08,3h1.86v2.58H112.49V88h-2.7Z" transform="translate(-10.19 -74.5)"/><polygon class="cls-1" points="117.29 16.85 94.86 16.85 99.24 41.04 112.12 41.04 117.29 16.85"/><path class="cls-1" d="M124.76,85.58s-1.7-3.72-5.08-3.6c0,0,2.15,1.9,1.95,3.6S124.76,85.58,124.76,85.58Z" transform="translate(-10.19 -74.5)"/><polygon class="cls-1" points="93.35 13.51 118.73 13.51 116.65 10.56 95.32 10.56 93.35 13.51"/><polygon class="cls-1" points="115.8 17.69 110.66 17.69 109.16 40.28 110.66 40.28 115.8 17.69"/></g><path class="cls-3" d="M183.58,348.79c-26,8.11-53.36-1.67-103.4-9.5s-70,16.82-70,16.82l243.3,0C245.94,348.56,209.6,340.69,183.58,348.79Z" transform="translate(-10.19 -74.5)"/><path class="cls-10" d="M154.42,167.94s1.55-7.18,12.88-8.1,53.71,0,53.71,0,10.24-2.3,10.24,12.87V295.85s1.14,5.56-4.29,14.25c-4.59,7.36-62.29,3.16-62.29,3.16s-11.18-1.6-12.11-19.8S154.42,167.94,154.42,167.94Z" transform="translate(-10.19 -74.5)"/><path class="cls-11" d="M158.19,172.24s1.4-6.75,11.63-7.62,48.51,0,48.51,0,9.26-2.16,9.26,12.12V292.6s1,5.24-3.87,13.42c-4.15,6.92-56.28,3-56.28,3s-10.1-1.5-10.94-18.63S158.19,172.24,158.19,172.24Z" transform="translate(-10.19 -74.5)"/><path class="cls-4" d="M192,297.9l8.28,12.19s6.38,0,11.47-.54a49,49,0,0,0,9.23-1.71c-8.1-15.28-12.53-26.47-23.74-39.67l-13.56,12.41-4.11,7.22Z" transform="translate(-10.19 -74.5)"/><polygon class="cls-4" points="181.81 235.76 156.7 234.49 159.15 207.13 160.91 190.98 187.05 193.68 181.81 235.76"/><path class="cls-12" d="M210,206.37a7.48,7.48,0,0,0,.74-4.17c-.07-4.53,1.71-10.71-1.49-14.83-3.79-4.9-12-4.66-17.41-3.7a5,5,0,0,0-2.17.77,4.74,4.74,0,0,0-1.06,1.21c-2.3,3.55-2.41,8-2.44,12.27,0,3,0,6.1,1.13,8.87,1.68,4,8.07,8.64,12.6,6.37,1.75-.88,1.32-3.74,2.82-4.67C205,207.1,208.05,209.46,210,206.37Z" transform="translate(-10.19 -74.5)"/><path class="cls-13" d="M199.63,197.15c-.51,1.94.06,1.83,1.33,3.49a5.55,5.55,0,0,0,4.85,2.1c.88-.09,1.73-.39,2.62-.41a2.28,2.28,0,0,1,2.22,1.14,3,3,0,0,1,.12,1.43l-.25,3.22a2.48,2.48,0,0,1-.59,1.71,2.4,2.4,0,0,1-1.54.4c-3.34.1-7.14-.06-9.33-2.6-2.46-2.85-1.61-7.23-2.79-10.81-.52-1.58-1.79-3.2-3.45-3.11s-2.76,1.93-3,3.6.15,3.4-.18,5.06a3.31,3.31,0,0,1-1.22,2.13,1.77,1.77,0,0,1-2.29-.16,2.76,2.76,0,0,1-.48-1.23,97.82,97.82,0,0,1-1.84-10.18c-.37-3.37-.29-7.09,1.83-9.74,1.84-2.29,4.84-3.29,7.73-3.84a38.94,38.94,0,0,1,9.08-.65,10.54,10.54,0,0,1,5,1.22,4.31,4.31,0,0,1,2.16,4.4c-.68,2.83-4.37,3.37-6.87,4.85s-4.29,5-3.18,8" transform="translate(-10.19 -74.5)"/><path class="cls-14" d="M199.91,241.12l1.46.28V227.94l-2.69-12.15-2.8-2-1.44-.17-5.37.17S202.49,233.81,199.91,241.12Z" transform="translate(-10.19 -74.5)"/><polygon class="cls-15" points="191.17 166.9 184.27 145.28 185.69 139.26 188.49 143.93 191.17 149.98 191.17 166.9"/><path class="cls-4" d="M172.23,253.28V230c0-3.32-.28-6.83,1.25-9.9,1.2-2.39,3.75-3.84,5.77-5.58,2.38-2,3.24-4.24,4.43-7.08,0,0,7.86,12.21,9.32,12.26s8.37,21.68,8.37,21.68c0-6.9,1.33-15-1.92-21.19a4.58,4.58,0,0,1-.65-1.76,4,4,0,0,1,.16-1.23c.3-1.35.61-2.69.92-4,.13-.51,8.69,3.3,9.38,3.61a93.59,93.59,0,0,1,14.37,8.72,24.11,24.11,0,0,0,5.3,3.1,22,22,0,0,0,3.87.93L247,232.08a16.07,16.07,0,0,0,0,5.27,5.44,5.44,0,0,0,3.13,4c-2.43-.9-6.41-.34-9-.62-3.34-.36-6.66-.84-10-1.47A123.8,123.8,0,0,1,211.76,234c-.68-.25-3.94-2-4.51-1.67s-.23,1.24-.3,1.85c-.12,1.11.12,13.61.76,13.74l3.46.7-4,2.16s-1.43,8.35,4.05,7.93a30.22,30.22,0,0,0,3.16-.34c-1.39.18-5.8.25-6.57,1.46-1.57,2.44.62,7.06,1.17,9.57,1,4.43,1.41,9,2.05,13.54.41,2.9-6.38,3.68-6.75,1.69-.29-1.54-2.88-11.17-2.88-11.17s-2,10.36-9.52,14-22.51-2.87-22.51-2.87Z" transform="translate(-10.19 -74.5)"/><path class="cls-16" d="M211.75,259.38l-12,0a17.41,17.41,0,0,1-3.23-.18c-3.77-.65-7.2-3.61-10.95-2.9" transform="translate(-10.19 -74.5)"/><path class="cls-17" d="M195.22,145.58a85.69,85.69,0,0,0,19.7-19.18l67.15-2.46s34.33,10.64,75.63,43.71l15.17,22.91s-9.95-3-29.21,23.35c0,0-41-13.34-62-6.45,0,0-38.53-22.38-54.85-24.35C226.81,183.11,202.75,152.61,195.22,145.58Z" transform="translate(-10.19 -74.5)"/><path class="cls-15" d="M226.81,183.11s46.37-50.63,66-54c0,0-16.18-6.94-24.5-5.21s-15.77-2.33-56.22,13.85l-16.85,7.79S217.69,169.07,226.81,183.11Z" transform="translate(-10.19 -74.5)"/><path class="cls-3" d="M222.25,163.71" transform="translate(-10.19 -74.5)"/><path class="cls-18" d="M343.51,213.47c-2.28-6.52-37.85-80.64-50.72-84.32-.23-.07-2.09,2.66,0,0,2.57-3.28,44.38,20.32,61,35.46l0,0c.46.47,16.52,17,18.93,25.66a.22.22,0,0,1-.2.28c-2,.15-14.86,1.88-28.68,23A.23.23,0,0,1,343.51,213.47Z" transform="translate(-10.19 -74.5)"/><path class="cls-4" d="M214.92,126.4s-12,17-13.55,16.34,46.87-16.34,46.87-16.34Z" transform="translate(-10.19 -74.5)"/><path class="cls-19" d="M206.34,256.54a2.2,2.2,0,0,0,.56.2,21.72,21.72,0,0,0,7,.47c1.57-.15,3.23-.45,4.66.17.92.4,1.62,1.14,2.52,1.58s2.22.44,2.72-.38l0-3.85,1.62,2a2.79,2.79,0,0,0,1.38-3.4,6.14,6.14,0,0,0-2.63-3c-5.62-3.76-20.87-4-18.31,5.47a1.36,1.36,0,0,0,.32.66A.52.52,0,0,0,206.34,256.54Z" transform="translate(-10.19 -74.5)"/><path class="cls-19" d="M251.22,228.9c2.23-.12,4.59-1.73,5.73,1.11-.35.09-2,1.85-1.69,1.89a19.29,19.29,0,0,0,3-.11v.77a6.83,6.83,0,0,0-2.84.86c-.31.17-.6.76-.29.91a5.26,5.26,0,0,1,2.78-.85v1.27a5.48,5.48,0,0,0-2.6.7l-.77.35c-.55.26-1.23.92-.91,1.54a1.31,1.31,0,0,0,1.2-.25,2,2,0,0,1,1.19-.47.85.85,0,0,1,.69,1c-2.28,1.55-5.22.15-7.63,1.34.12.46.06,1.2-.32,1.13-.09,0-1.75-.89-1.83-.95-1.46-1.39-2.53-2.52-1.91-5S249.42,229,251.22,228.9Z" transform="translate(-10.19 -74.5)"/><path class="cls-4" d="M268.29,238.6s1.16,8.53-1.73,10.59-7.79,2-7.79,2-6.43-.69-4.1-7.95,33.53-94.49,33.53-94.49l32.08,11.38v-1.47l-29.77-9.91h23.75l-1.45-1.85h-22.3l13.27-7.06-1.28-1.47-13.43,7.06,4.61-16.76H292l-4.73,15.87-1.62-.29-17.31-20.29-.57,2.36,15.58,17.93-36.81-16.46h-2.62l38.2,18.52-27.4.29,1.8,2.15h25.6l-25.93,78.69-5.27,15.8s-4.79,12.73,14.54,11.41c0,0,8.08-2.47,6.92-12.92C272.33,241.71,272.33,238.9,268.29,238.6Z" transform="translate(-10.19 -74.5)"/><path class="cls-20" d="M207.28,232.48a33.73,33.73,0,0,0,.57-10.11c-.49-3.35-2.14-6.71-5.1-8.46A75.5,75.5,0,0,1,216.49,220c4,2.27,8.18,6.8,12.44,8.64,5.82,2.51,11.88,1.53,17.94,3.44-3.2,2.92-2,6.45,3.25,8.08-7.42,1.17-14,1.35-20.62-.22-7.89-1.88-14.88-6.32-22.83-7.48a31.57,31.57,0,0,0,.49-14.4" transform="translate(-10.19 -74.5)"/><path class="cls-19" d="M255.28,228.47c.54.13,1-.28,1.57-.48a2.13,2.13,0,0,1,2.45.79,11.72,11.72,0,0,1-.49,6.78,4.21,4.21,0,0,1-1.32,1.93c-.69.49-3.5,1.37-4.27.85a1.51,1.51,0,0,1,.2-2.66C253.35,234.93,255,228.41,255.28,228.47Z" transform="translate(-10.19 -74.5)"/><path class="cls-18" d="M184.27,219c5.47,3.95,3.57,8.52,5.07,14.27a28.09,28.09,0,0,0,2.13,5.18c3.17,6.42,6.56,7.18,13.41,8.17,2.26.34,7-.14,6.29,1.92-1.16,3.22.19-.34,0,0a3.76,3.76,0,0,1-2.73,1.73.66.66,0,0,0-.5.63c-.06,3.47-2.2,7,1.79,6.89.39,0,3.14-.13,3.13.26h0a.66.66,0,0,1-.63.63c-4.08.21-8.52.39-12.26-.85s-10.41-.52-13.55-3c-2.73-2.12-4.42-7.67-5.68-11-2.91-7.61-11.4-20.51-6.22-26.18C178.38,213.54,180.81,216.53,184.27,219Z" transform="translate(-10.19 -74.5)"/><path class="cls-4" d="M214.92,126.4s28.18-9.38,36-8.51a63.43,63.43,0,0,0,14.25-.06h17.61s6.45-1.24,15.62,6.55a21,21,0,0,0,12.53,4.83c2.62.14,5.41-.93,8-.28s5.23,3,7.21,4.88c4,3.81,8.14,7.51,12.07,11.44,3,3,5.87,6.11,8.56,9.39,1.29,1.58,2.54,3.2,3.73,4.85,1,1.37,2.09,4.16,3.4,5.12,0,0-51.34-37.52-73.16-38.21Z" transform="translate(-10.19 -74.5)"/><path class="cls-19" d="M243.12,311.47c.24,1.17.7.16.46,1-.44,1.46-2.17,4.73-2.29,5.87-.5,4.51-3.47,5.73-5.15,8.69-.13-1-1.24-2.24-1.39-3.21-.7-4.7,3.24-8.15,4-12.57.15-.94-.13-2.67.64-3.39C239.35,307.82,241.84,305.34,243.12,311.47Z" transform="translate(-10.19 -74.5)"/><polygon class="cls-19" points="246.95 248.6 246.95 259.63 250.33 260.18 252.1 249.91 253.38 244.8 246.85 244.8 246.95 248.6"/><polygon class="cls-19" points="245.52 269.48 245.52 261.94 250.59 261.94 250.59 267.16 249.84 277.01 246.32 276.82 246.32 276.82 245.52 269.48"/><polygon class="cls-19" points="234.09 265.15 234.09 257.62 239.16 257.62 239.16 262.83 238.42 272.69 234.9 272.5 234.9 272.5 234.09 265.15"/><path class="cls-19" d="M255.91,302.53a7.26,7.26,0,0,0,.61-3.23,6,6,0,0,0-2.25-1.1c-.68-.17-1.55-.13-1.87.49a2.36,2.36,0,0,0-.15.79,11.94,11.94,0,0,1-1.38,3.48c-1,2.28-1,6.31.54,8.51,1-.49,1.59-2.73,2.17-3.65A26.26,26.26,0,0,0,255.91,302.53Z" transform="translate(-10.19 -74.5)"/><path class="cls-4" d="M250.94,291.57a.86.86,0,0,1,.71-.64c.71-.05,1,.86,1.28,1.52a4.37,4.37,0,0,0,4.57,2.23,8,8,0,0,0,3.56-1.27c1-.69,1.54-1.66,2.82-1.9a29.32,29.32,0,0,1,5.13,0,4.46,4.46,0,0,0,1.63-.2,4.63,4.63,0,0,0,1.12-.74l6.28-5.19a4.54,4.54,0,0,0,3.14,5.12l-6.55,6.15a7.65,7.65,0,0,1-1.7,1.31,6.09,6.09,0,0,1-1.79.54,22.88,22.88,0,0,1-6.66.28q-.15,4.19-.08,8.37a20.34,20.34,0,0,1,.12,4.19c-.47,2.14-6.63,1.05-8.26,1.05H243.58a3.16,3.16,0,0,0-2.25-2.17,9.38,9.38,0,0,0-3.26-.17,59,59,0,0,1,2.68-8.79c.45-1.15.93-3.23,1.8-4.12a13.82,13.82,0,0,1,4.27-2.44c1.75-.52,3.14-.91,3.81-2A7.75,7.75,0,0,0,250.94,291.57Z" transform="translate(-10.19 -74.5)"/><polygon class="cls-19" points="358.33 252.71 367.74 252.71 363.87 271.44 358.33 271.44 358.33 252.71"/><path class="cls-4" d="M359.82,259.65s-7.13,55.42-5,70.46c0,0,22.12,1.05,28.08,2.11s14.67-2.11,14.67-2.11-1.42-59.58-9-67.39c0,0-.93-5.61-5.7-7.5s-21.21,0-21.21,0l-1.32,2.06Z" transform="translate(-10.19 -74.5)"/><path class="cls-21" d="M357.18,223c-5.28-7.92-.53-6.6,0-11.22s11-.9,11-.9l2.21,3.94c2.21,3.94.37,9.5.37,9.5l-4.38,3.16c-1.83,1.32-7.6-1.84-7.6-1.84" transform="translate(-10.19 -74.5)"/><path class="cls-19" d="M369.05,191.74s-.52,0-2.14,12.25c0,0,3.46,9,8.21,6.32l-.26,6.07-4.12,3.43v4.49l-4.38,3.16,1.11,1.32,6.07-4.22.26-2.9,1.32-.27V218l7.76-4.75,1.74-.22v-5.05s4.22.15,5.28-5.21-3.43-11-3.43-11S379.61,182.13,369.05,191.74Z" transform="translate(-10.19 -74.5)"/><path class="cls-13" d="M245.44,285.17s1.54-4.12.48-5.42.93-.34.93-.34a2,2,0,0,0,1.16-2.86c-1-2.06,2.26.31,2.26.31s3.77-.83,2.88-3l.93-.34a5.19,5.19,0,0,0,4-.23l1.35,1.57,1.28.52,1,2.58,1.46-.35a18.58,18.58,0,0,0-3-9.95,9.68,9.68,0,0,0-2.47-2.95c-1.15-.79-6.64-1.88-7.9-1.57a4.22,4.22,0,0,0-3.08,3.31c-1.81-.32-5.78.92-6.51,2.85-.29.77-.38,1.62-.73,2.35-1.3,2.7-1.36,2.27-.79,5.83C238.77,277.46,239.92,284.74,245.44,285.17Z" transform="translate(-10.19 -74.5)"/><path class="cls-22" d="M300.55,246.52a35.53,35.53,0,0,1-13.52,15,10.2,10.2,0,0,0,2.28,6.34,5.36,5.36,0,0,0,4,2.13c2-.05,3.58-1.76,4.86-3.34l7-8.62a15.65,15.65,0,0,0,2.19-3.18,12.68,12.68,0,0,0,1-4,51,51,0,0,0-.62-13.22c-1-6.58,1.49-15.69,2.73-22.24-1.51-.35-6.56,3.9-6.92,5.42a60.86,60.86,0,0,0-1.15,7.48C301.67,234.75,303.38,240.59,300.55,246.52Z" transform="translate(-10.19 -74.5)"/><path class="cls-10" d="M306.73,268.63l-8.93,34.1L301,344.88h7.94l5.78-38.12L319.45,288a29.7,29.7,0,0,0,0-10.58C318.39,271.53,306.73,268.63,306.73,268.63Z" transform="translate(-10.19 -74.5)"/><path class="cls-10" d="M326.31,338.07s3.69,5.7,9,0l2.64-41s1.3-8.25,2.49-20.74c0,0-.38-6.42-1.44-13.65l-21.63,8.48Z" transform="translate(-10.19 -74.5)"/><path class="cls-13" d="M324.72,349.11s-.65,7.91,3.9,7.91a8,8,0,0,0,6.66-4V342.77s-2.24,2.11-6.66,0Z" transform="translate(-10.19 -74.5)"/><path class="cls-13" d="M289.37,349.9v4.48h21.1v-6.07s-7.38,2.91-8.44-.26S289.37,349.9,289.37,349.9Z" transform="translate(-10.19 -74.5)"/><path class="cls-4" d="M307,270c-.15,3,4.92,7.32,7.52,8.08,4.8,1.41,12.16-1,17.06-1.51,2.17-.25,5.55,0,7.56-.89,2.48-1.1,2.51-4.73,2.47-7,0-3.45-2-4.61-3.48-7.53-2.49-5-.52-13.3-.52-18.85,0-2.59-2.08-5.91-2.32-8.74a30.68,30.68,0,0,1,2.19-13.75c1.44-2.88,3.9-3.62,6.65-4.94-4.44-3.21-9.51-5.8-14.18-8.73,0,0-12.39,9.76-12.65,4,0,0-8.94,2.79-10.87,7.69-2.06,5.24,2.1,24.37,2.1,24.37Z" transform="translate(-10.19 -74.5)"/><path class="cls-22" d="M340.41,278.48a12.61,12.61,0,0,0,7,0c3.43-1.15,3.95-32.28,3.95-32.28l-2.9-21.38-4.3-10s-2.56-.64-6.65,4.94-2.63,12.45-2.63,12.45,3.67,13.46,4.08,18.21,2.55,16.9,2.55,16.9S340.52,276.73,340.41,278.48Z" transform="translate(-10.19 -74.5)"/><path class="cls-21" d="M343.29,292.14a2.6,2.6,0,0,0,1.08-.14,2.68,2.68,0,0,0,1.18-1.82c1.05-3.59,2.11-7.32,1.51-11a18.23,18.23,0,0,1-5.89-.39,1.19,1.19,0,0,0-.72,0c-.45.17-.53.77-.53,1.26a67.63,67.63,0,0,1-.57,8.41C338.81,292.54,339.26,292.1,343.29,292.14Z" transform="translate(-10.19 -74.5)"/><path class="cls-21" d="M308.54,200.28s.88,7.13,1.93,7.66,6.87,0,6.87,0v2.11s-1.88,5.8,12.65-4c0,0-1-.19-1.41-3.53s1.41-3.74,1.41-3.74,4.12-14.9-10.07-15.16-11.06,9.76-11.06,9.76Z" transform="translate(-10.19 -74.5)"/><path class="cls-13" d="M317.91,195.24a1.9,1.9,0,0,0,1.48,1.57,11.08,11.08,0,0,1,3.07-3.44,2.31,2.31,0,0,1,1.09-.44,1.84,1.84,0,0,1,1.71,1.25,18.09,18.09,0,0,1,.56,5.19,4.74,4.74,0,0,0,.44,2.42,1.86,1.86,0,0,0,2.32.78c2.05-4.43,3.31-9.87,2.28-14.69-1.47-6.85-17.3-8.76-21.36-3.23a5.6,5.6,0,0,0-.89,2.39c-.23,1.6.09,3.36,1.34,4.15s2.78.29,4.21.45" transform="translate(-10.19 -74.5)"/><path class="cls-13" d="M359,224s-7.66,1.54-5-8.73,16.36-3.54,16.36-3.54,1.85,2.25,0,3S368,219,368,219s-1.35,4.75-4.25,1.58-1.45,1.58-1.45,1.58Z" transform="translate(-10.19 -74.5)"/><path class="cls-22" d="M375.75,218.24a23.86,23.86,0,0,1-3.2,5.7c-1.79,2-4,2.22-6.19,3.52,0,0-3.36.33-8.92-2.11,0,0-2.37,8.45,0,10.56l-1.05,7.91s-1.85,9,4,13.46,17.77-4,17.77-4l10.46-8.6-5-12.77-3.17-6.6s1.25-5.88,3.43-7.39a5.86,5.86,0,0,1,4.75-1.1s-1.1-3.87-2.42-3.87-3.27.22-3.28.22c-1.11.13-5.56,2.36-6.19,3.32A13,13,0,0,0,375.75,218.24Z" transform="translate(-10.19 -74.5)"/><path class="cls-17" d="M376.39,264.88c-1-.93-.34-2.42-.51-3.64a66,66,0,0,1-.12-9.54,8.1,8.1,0,0,0-.71-4,4.54,4.54,0,0,0-3.83-2.36,7.7,7.7,0,0,1-2.15-.06c-.52-.18-1-.57-1.53-.53-.72.07-1,.79-1.07,1.38-.9,6.24.48,15.59,2.56,21.69C370.77,272.87,379.46,267.79,376.39,264.88Z" transform="translate(-10.19 -74.5)"/><path class="cls-19" d="M369.43,241.51a1.46,1.46,0,0,1,2.69.09,12.13,12.13,0,0,0,2.42,4c2.16,2,5,3.4,7.8,3.05a5.5,5.5,0,0,0,3.38-1.7c1.83-2,1.21-4.08.61-6-1.21-3.91-4.72-10.12-5.93-14-1-3.28.25-4.49,1.75-7.84a4.53,4.53,0,0,1,4.24-2.9c3,.19,4.34,3.71,5.05,6.72A135.75,135.75,0,0,1,395,249.5c.05,1.46,0,3.13-1,4.12a4.22,4.22,0,0,1-1.92.94,24.25,24.25,0,0,1-19.72-3.22,19.08,19.08,0,0,0-4.11-2.54c-1.38-.46-3.17.23-4.24-1.09-1.45-1.81-1.44-8.1,1.53-8,0,2.08,2.18,4,3.72,2A1.39,1.39,0,0,0,369.43,241.51Z" transform="translate(-10.19 -74.5)"/><path class="cls-21" d="M371.88,274.79l7,.58a4.88,4.88,0,0,0,2.71-.28,2.5,2.5,0,0,0,1.29-2.3,1.38,1.38,0,0,0-.45-1c-.46-.36-1.11-.24-1.7-.28-1.82-.12-3.22-1.89-5-2a5.84,5.84,0,0,0-1.32.11c-1.58.27-2.43.16-3.08,1.54C371.05,271.65,371.36,274.79,371.88,274.79Z" transform="translate(-10.19 -74.5)"/><polygon class="cls-19" points="372.69 257.72 375.49 263.92 378.39 260.82 378.39 257.94 372.69 257.72"/><path class="cls-4" d="M359.82,353.33s7.69-2.64,8.71-7.39c0,0,5.23,1.47,5.54,0s1.91,8.44,1.91,8.44v1.32H358.24v-1.32Z" transform="translate(-10.19 -74.5)"/><path class="cls-4" d="M382.88,348.84h1.48V337l1.32,1.45,2.9-3.1,6.44,3.1-6.44,12.27-2.85,1.05h-4.54S380.09,350.43,382.88,348.84Z" transform="translate(-10.19 -74.5)"/><path class="cls-13" d="M395.71,189.62c-1.85-8.75-11.88-6-11.88-6-2.12.2-1.35,3.61-1.35,3.61s-2.58-1.49-7.88,0-5.55,4-5.55,4l8,1.63v5.27c1.19,2.66.59,5,1.86,6.34a3.24,3.24,0,0,0,0-1.42l-.06.42a2.24,2.24,0,0,1,2.8-3.23,16.49,16.49,0,0,1,.35,4.38c-.11,1-.52,1.11-1.36,1.44a8.46,8.46,0,0,0,4,1.84s2.69-.19,3.88-1.64c2.59-3.18,1.56-9.38,1.56-9.38C398.61,197.36,395.71,189.62,395.71,189.62Z" transform="translate(-10.19 -74.5)"/><path class="cls-23" d="M341.44,154.09" transform="translate(-10.19 -74.5)"/><path class="cls-19" d="M278,285.42c-.09-1.19,1.94-1.44,2.47-2.2,1-1.37-.27-2.24.16-3.34,1.74-4.39,7.71-4.71,10.85-7.39,0,1,0,2,0,2.94-.25,2.58-.49,4.64-2.86,5.95-.78.44-1.6,1.12-1.56,2-.11-2.1-3.55,2.65-3.51,2.57-.82,1.5-1.58,3-2.36,4.56C281.19,290.53,278.55,291.67,278,285.42Z" transform="translate(-10.19 -74.5)"/><path class="cls-21" d="M280.18,275.53a9.55,9.55,0,0,1,1.3-1,9.55,9.55,0,0,0,2.08-2.74c1.11-1.76,2.55-5.44,4.16-6.76-.32.34,1.29,2.41,1.59,2.76,1.07,1.29,2.45,1.45,4,2.13.59.27-.27,2.32-.26,3l-2.31.09-.5,3a1.64,1.64,0,0,1-.41,1,1.62,1.62,0,0,1-1.13.23l-2.84-.12a2.53,2.53,0,0,0-1.47.24.86.86,0,0,0-.23,1.28c-1.47-.09-1.69,4.22-4,2.52C279,280.3,279.39,276.39,280.18,275.53Z" transform="translate(-10.19 -74.5)"/><path class="cls-24" d="M262,277" transform="translate(-10.19 -74.5)"/><path class="cls-19" d="M252.33,290.66c.57,1.89,2.19,4.41,4.4,4,1.61-.26,3.11-.13,4.33-1.29,1.61-1.52,1.23-6,1.39-8a13.66,13.66,0,0,0-.35-4.64c-.51-1.8-1.34-3.38-3.18-3.39a23.91,23.91,0,0,1-2.54,0,6.72,6.72,0,0,0-3.95,1.15,8,8,0,0,0-1.57,1.55c-1,2.27-2.18,4.73-1.92,7.33.08.8.51,2.59,1.14,3.08A2,2,0,0,0,252.33,290.66Z" transform="translate(-10.19 -74.5)"/><path class="cls-13" d="M251.76,280.76a8,8,0,0,1-.62,3.3,9.67,9.67,0,0,1-2.15,2.77,26.31,26.31,0,0,0-1.58-2.64c-1.45-3.16.53-6.17,3.56-7.52-1.46,1-3-.14-3.76-1.76a4.59,4.59,0,0,1,1.8-5.76c2.83-1.62,4.48-1.77,6.35.8.93,1.28-.31,3.46.4,4.48.9,1.31,3.09.6,4.05,1.72a30.36,30.36,0,0,1,2.25,2.9l.45,3.43C262.16,283.86,252.32,282.35,251.76,280.76Z" transform="translate(-10.19 -74.5)"/><path class="cls-3" d="M236.29,326.21s5.94-14.2,7.79-14.2h20.66c1.7,3.94,3.44,7.87,5.15,11.8a55.43,55.43,0,0,1,2,5.9c1,3.39,1.89,6.08-1.56,8.3-1.73,1.1-4,2.58-6,1.13-2.84-2.1-7.44-1.18-10.9-1.21l-4.61,0c-.93,0-2.61.36-3.38-.27a7.33,7.33,0,0,1-1.3-2.22c-.8-1.47-3.06-.59-4.42-.61-2.18,0-2-.37-2-2.45a1.42,1.42,0,0,0-.18-.82,2.44,2.44,0,0,0-.85-.57C236,330.53,236,327,236.29,326.21Z" transform="translate(-10.19 -74.5)"/><path class="cls-4" d="M243.69,351.18c-.23.48.48,2,.9,2.37a2.7,2.7,0,0,0,.84.44c1.41.46,4.7-.47,4.65-1.95-.08-2.12-1.13-2.43.16-3.85.5-.54.07-2.41.16-3.5-.69-.23-.28-.73-1-.43-.19.08-.37.21-.56.29-.55.22-1.58.87-2.14.7-.94-.27-1.49-1.32-2.47-1.45a.73.73,0,0,0-.46.05c-.1.06.55-.13.46-.05C241.57,346.19,244.76,349,243.69,351.18Z" transform="translate(-10.19 -74.5)"/><path class="cls-4" d="M253.49,352.53a4.92,4.92,0,0,0,.38,2.32c.67,1.28,2.31,1.71,3.75,1.64a5.32,5.32,0,0,0,4.37-2.27,7.63,7.63,0,0,0,.6-4.45,1.29,1.29,0,0,0-.31-.92c-.59-.53-1.75.24-2.25-.39-.17-.22.16.25,0,0-.29-.45-2-.1-2.59-.15-.75-.07-.71-1.51-1.24-2.06a4.43,4.43,0,0,0-.66-.64C252.48,343.52,253.49,351.63,253.49,352.53Z" transform="translate(-10.19 -74.5)"/><path class="cls-4" d="M245.12,346.19l4,.05a.44.44,0,0,0,.2,0,.41.41,0,0,0,.14-.34,8.83,8.83,0,0,0,0-1.36,1.44,1.44,0,0,0-.19-.64.52.52,0,0,0-.59-.22c-.26.1-.26.34-.43.12-.31-.38-.74.65-1.07.58a2.12,2.12,0,0,1-1.06-.46,3.19,3.19,0,0,0-.26-.26.71.71,0,0,0-.79,0,1.47,1.47,0,0,0-.5.65C244.09,345.25,243.88,346.18,245.12,346.19Z" transform="translate(-10.19 -74.5)"/><path class="cls-4" d="M253.18,348.38a3.28,3.28,0,0,1,.51-2.33,1.42,1.42,0,0,1,2.12-.19c.53.68.22,1.94,1,2.28a1.4,1.4,0,0,0,.67.08l2.23-.08a1.38,1.38,0,0,1,1.24.37,1.31,1.31,0,0,1,.2.65,4,4,0,0,1,0,1.42,1.36,1.36,0,0,1-.88,1,1.54,1.54,0,0,1-1-.11c-.26-.11-.62-.23-.8,0s0,.48-.16.68a.71.71,0,0,1-.6.23,5.87,5.87,0,0,1-1.62-.1,5.54,5.54,0,0,1-1.29-.58C253.06,350.78,253.32,350.29,253.18,348.38Z" transform="translate(-10.19 -74.5)"/><path class="cls-25" d="M372,243.26l2.38,2.38a14.29,14.29,0,0,0,5.18,3.81A6.61,6.61,0,0,0,386,248.3a5.63,5.63,0,0,0,1.57-6.18c-.72-1.77-2.34-3-3.68-4.32s-2.51-3.26-1.95-5.08l0,5.7a10.17,10.17,0,0,1-.56,4,3.45,3.45,0,0,1-3.09,2.24c-2-.09-3.08-2.34-4.09-4.09s-3.41-3.39-4.86-2a3.72,3.72,0,0,1-.88,2c-1.05-1.58-2.78-3.37-4.49-2.58a3.45,3.45,0,0,0-1.41,1.42,14.29,14.29,0,0,0,2.25,17.46c-2.16,1-4.36-1.27-5.66-3.27-.71,1.62.42,3.58,2,4.4a10.77,10.77,0,0,0,5.21.77l.14-5.62a2.81,2.81,0,0,0-.21-1.41,4.34,4.34,0,0,0-1.21-1.12c-1.44-1.18-1.89-3.17-2.25-5s-.1-4.37,1.71-4.44c1,0,1.75.8,2.67,1.13a2.8,2.8,0,0,0,3.52-1.91,3.12,3.12,0,0,1,1,2.62" transform="translate(-10.19 -74.5)"/><polygon class="cls-26" points="185.69 139.26 188.49 143.93 189.71 138.66 185.69 139.26"/><g class="cls-27"><path class="cls-26" d="M209,308s-.5,4.84-2.13,5.05-11.41,1.38-11.41,1.38-6.53-.63-8.17-10.8c0,0-.09-7.72,9.3-9.53l5.54.66,1.48,1.89-5.84,9.43s.12,2.88-.93,2.29,1.32,1.78,1.32,1.78Z" transform="translate(-10.19 -74.5)"/><path class="cls-28" d="M196.26,305.2,202,295a.27.27,0,0,1,.39-.11,2.82,2.82,0,0,1,1.23,1.75c.28,1.29-5.9,8.1-6.64,8.91a.26.26,0,0,1-.17.09l-.27,0A.32.32,0,0,1,196.26,305.2Z" transform="translate(-10.19 -74.5)"/><ellipse class="cls-28" cx="185.81" cy="232.29" rx="1.12" ry="1.24"/></g><path class="cls-19" d="M182.3,266a5.29,5.29,0,0,0,2.11-3.91l.19-2.55s.93,2.67,6,5.8L190,266s-.95,3,0,3.7h-2.3C186.65,269.67,182.58,269,182.3,266Z" transform="translate(-10.19 -74.5)"/><path class="cls-19" d="M184,254.36l.12,6.2s3.29,4.81,4.76,4.61l1.48-.2s3.21.67,5.78-3.74l1.79-5.85,1-6.53s-4.33-9.17-11.48-2.22l-2.38,1.3Z" transform="translate(-10.19 -74.5)"/><path class="cls-13" d="M182.72,254.36s3-2.47,2.79-4,.84.16.84.16a1.75,1.75,0,0,0,2.14-1.66c.17-2,1.53,1.25,1.53,1.25s3.15,1.08,3.48-1l.84.16A4.41,4.41,0,0,0,197.4,251l.29,1.82.72,1L198,256.2l1.24.4a17.17,17.17,0,0,0,2.27-9,8.73,8.73,0,0,0-.51-3.39c-.5-1.13-4.06-4.46-5.14-4.79a3.61,3.61,0,0,0-3.75,1.14c-1.2-1.06-4.69-1.91-6.1-.76-.56.46-1,1.07-1.59,1.48-2.17,1.48-2,1.12-3.2,4.12C181.24,245.41,178.83,251.52,182.72,254.36Z" transform="translate(-10.19 -74.5)"/><path class="cls-13" d="M184.92,256.56c1.39,2,3.7,2.82,5.9,3.36a4.76,4.76,0,0,0,1.75.19c1.26-.16,2.25-1.24,3.13-2.25s2.32-1.66,2.39-3.08c.34,0,0,.55-.11.91l-.84,2.73a9.34,9.34,0,0,1-1.81,3.76c-.5.53-.83,1.36-1.44,1.72a9.66,9.66,0,0,1-3,1.18c-.68.13-1.28.74-2,.58a2.91,2.91,0,0,1-1.34-1L185,261.9a2.87,2.87,0,0,1-.68-.94,2.76,2.76,0,0,1-.15-.8,19.81,19.81,0,0,1-.1-5.8A9.49,9.49,0,0,0,184.92,256.56Zm4,4.27c-.16.08-.16.36,0,.5a.78.78,0,0,0,.48.21l1.23.21a.6.6,0,0,0,.57-.09A.54.54,0,0,0,191,261a1.22,1.22,0,0,0-.66-.25l-1.29-.21c-.12,0-.3.09-.22.18" transform="translate(-10.19 -74.5)"/><line class="cls-29" x1="213.14" y1="268.54" x2="205.19" y2="251.53"/><path class="cls-30" d="M214.33,324.45a1.67,1.67,0,0,1,2.41-1.42c1.78.72,2.94,3.91,3.75,5.8,1,2.44,2,4.89,3.07,7.34.61,1.49,2.57,4.66,1.67,6.32-.45.83-1.12,1.15-1.9.55-1.61-1.27-8.94-17.57-8.94-17.57Z" transform="translate(-10.19 -74.5)"/><ellipse class="cls-31" cx="148.19" cy="281.26" rx="7.57" ry="8.4"/><path class="cls-32" d="M172.23,344.64s-15.58,4.78-13.69,12.85c.65,2.79,2.29,5.3,4.88,6.09,2.41.75,4.61-.25,6.8-1.28l13.18-6.21,4.34-2,.79-.76" transform="translate(-10.19 -74.5)"/><path class="cls-33" d="M170,348.59,169.8,347l.08-24.3,35.25,6.47.42,9.18a48.66,48.66,0,0,1-.47,6c-.17,2.21.23,7.4-1.48,8.87a3.55,3.55,0,0,1-2.38.61l-16.6.17a8.16,8.16,0,0,1-4.37-.76c0-.42.22-2,0-2.3s-.68-.09-1-.12a16.26,16.26,0,0,0-1.71,0l-16.64,5.31-1.3,1.55c-2.79,2.32-4.78-1.33-4.78-1.33-.3-6.19,4.78-3.76,4.78-3.76ZM181,352.46s17.14-.55,19.73-.44,1.79-2.66,1.79-2.66l-21.52.89A3,3,0,0,0,181,352.46Zm19-11.91s1.55,2.37,3.39,2.07v-9.18s-3.19-1.31-3.79,1.22A13.74,13.74,0,0,0,200.07,340.55Zm-24.68,7.63,3.56,1.18.89-.77.35-2L179,345.17a21.84,21.84,0,0,1-4.15,1.43A16.61,16.61,0,0,1,175.39,348.18Z" transform="translate(-10.19 -74.5)"/><ellipse class="cls-31" cx="218.41" cy="281.66" rx="7.57" ry="8.4"/><path class="cls-5" d="M226.58,355.79s.1,3.32,3.28,2.76a3.25,3.25,0,0,0,2.8-3.64c-.15-1.18-.3-2.49-1.28-3.2-1.47-1.08-3,.34-4.38.83-.74.25-2.36.2-2.82-.74l-4.72-9.73s2.73-5.64,7.91-5,5.41-4.54,5.41-4.54a24.39,24.39,0,0,0-17.26,7.08l-4,5.94-2.3,1.47v1.11l4.48-.22,2.89-3.87,3.24,6.43c.7,1.38,1.12,3.41,2.4,4.32C222.75,355.17,226.58,355.52,226.58,355.79Z" transform="translate(-10.19 -74.5)"/><path class="cls-4" d="M194.13,316.14c1.36-2.69,7.47-2.89,9.73-3l8.52-.26s2.36-2.39,7.09,12.87l1.54,3.74a42.64,42.64,0,0,0-5.78,2.39c-1,.52-2.67,1.14-3.43,2.12s-1,3.08-2.14,3.91-3.16.29-4.54.27c-.24,0-.15-2.6-.26-2.94a5.17,5.17,0,0,0-2.58-2.81c-2.43-1.31-5.23-1.36-7.93-1.39a4.5,4.5,0,0,0-1.21.1,4.3,4.3,0,0,0-1.29.67,20,20,0,0,0-6.21,6.25c-.42.71-4.08,8.55-4.36,8.4-3.54-1.82-6.9-4.45-10.28-6.67,0,0-4.41,3.32-6.26,4A38.56,38.56,0,0,1,159.4,345l-18.28-.55s-5.75.33-7.8-3.76,3.86-14.13,4-14.38c1.37-2.33,5.05-2.95,7.26-3.35,3.08-.56,6.15-1.4,9.29-1.47,2.35,0,5-.39,7.34.34a29.71,29.71,0,0,1,5.37,2.27c1.85,1,2.36,2.29,3.74,3.67,2.33,2.31,6.41,2,9.28,1.78,4.46-.29,9-.92,13.38-1.58.31-.05.81-9.65.88-10.6A3.39,3.39,0,0,1,194.13,316.14Z" transform="translate(-10.19 -74.5)"/><path class="cls-5" d="M248.21,355.4c0,11.45-8.37,20.73-18.69,20.73s-18.68-9.28-18.68-20.73,8.36-20.74,18.68-20.74S248.21,344,248.21,355.4Zm-18.69-15.7c-7.81,0-14.14,7-14.14,15.7s6.33,15.7,14.14,15.7,14.15-7,14.15-15.7S237.33,339.7,229.52,339.7Z" transform="translate(-10.19 -74.5)"/><path class="cls-33" d="M176.56,355.4c0,11.45-8.36,20.73-18.68,20.73s-18.69-9.28-18.69-20.73,8.37-20.74,18.69-20.74S176.56,344,176.56,355.4Zm-18.68-15.7c-7.81,0-14.15,7-14.15,15.7s6.34,15.7,14.15,15.7,14.14-7,14.14-15.7S165.69,339.7,157.88,339.7Z" transform="translate(-10.19 -74.5)"/><path class="cls-34" d="M219.76,334.32s.54-2.66,2.93-1.45c2,1,3.15,4.92,3.95,7.23,1,3,2,6,3,9,.61,1.82,2.66,5.76,1.47,7.65-.59.94-1.41,1.25-2.26.46-1.8-1.66-9.11-21.68-9.11-21.68Z" transform="translate(-10.19 -74.5)"/><polygon class="cls-10" points="210.46 250.94 228.5 250.18 227.89 248.52 227.89 248.52 221.61 246.15 205.93 244.56 210.46 250.94"/><path class="cls-10" d="M213.76,318.58l2.36.48,6.89,2.33,4.66-.51-.95-7.28-1.48-.67h-7.42l-2.23-1.05h-3l-1.79,1.92S213.54,318.12,213.76,318.58Z" transform="translate(-10.19 -74.5)"/><path class="cls-10" d="M225.69,314.8l-1.21-2v-1s2,.33,1.21-2.33l-.51-.44h-.7l-.69-17.69s-1.3-.89-2.2,1.32a26.63,26.63,0,0,0-1.09,6.53s-.1,3.43,2.69,2.87l.6,6.53-1.5.11v1.44l-1.29.55-.5.55-3.29-.22-.9-1.1,1.2-.12s1.69-.22.7-1.88-3.49-1.1-3.49-1.1-1.1.11-.7,2.1,1,.77,1,.77l.79,1.33.7.89,4.78.22.9-.33h1l.7,3.16,1.8.82Z" transform="translate(-10.19 -74.5)"/><ellipse class="cls-10" cx="199.04" cy="225.91" rx="2.33" ry="2.59"/><polygon class="cls-10" points="199.04 237.38 200.86 236.49 199.95 228.94 200.65 227.79 201.38 234.77 203.83 234.39 204.13 236.42 200.65 239.3 199.04 237.38"/><path class="cls-10" d="M117.16,315.75l45.78-.5L169.4,319l28.84-5.84s-11.18,5.76-6.36,13.57l-1.9,1.35s-18.45,3.89-19.66-.26c-1.16-4-8.3-6.46-12-6.37-4.54.11-10.06.83-13.26,2-2.51.9-14.08-2.52-14.08-2.52l-2.09-2.19H117.16S116,315.79,117.16,315.75Z" transform="translate(-10.19 -74.5)"/><path class="cls-19" d="M204.36,299.58l.62.33a.59.59,0,0,1,.3.47,4.57,4.57,0,0,0,3.38,4.12c3.18.95.91-1.11.45-1.51l-.15-.1c-.5-.18-3.15-1.26-1.75-3.45,1.54-2.41,3.11-1.67,3.11-1.67h0c.54.24,1-.51.58-1a2.35,2.35,0,0,0-2.93-.44l-.15,0-3.45.27a.57.57,0,0,0-.49.65l-.25,2C203.65,299.49,204.2,299.49,204.36,299.58Z" transform="translate(-10.19 -74.5)"/><path class="cls-10" d="M183.59,264.59s-3.7,2.07.44,4c1.29.6,3,1.44,4.47,1.26.63-.07.78-.77,1.21-.87s.69.46,1,1.09a24.08,24.08,0,0,1,1.52,3.05,15.61,15.61,0,0,1,.89,4.9,9.84,9.84,0,0,1-1.17,4.43c-.67,1.45-.26,2.46-.06,4l.82,6.76s10.25.95,12,1.26-.86,2.21-.86,2.21l-.18,3.86-9.75.88h-7.43l0,6.79s1.88,0,6.3,2.05c1.62.75,4,1.47,5.35,2.8-1.2.59-2.55.51-3.79.83,1.67,3.07,4.5,5.42,6.13,8.52,0,0,3,5.68-1.14,8.05l-9,14.05L183.7,354l-3.39-1.48,2.32-8.1a74.24,74.24,0,0,1,2.49-8.22c1.24-3.38,2.45-7.29,5.83-8.58a3.67,3.67,0,0,0-.82-2.47,2.93,2.93,0,0,0-1.16-.57c-4.4-1.37-8.83-3.13-13.31-4.15L169.4,319c-3.15-.72-4.41-3.79-4.43-7.09s2.3-5.85,2.3-8.69v-2.37l5.69-6.95,1.28-4.26.85-14.36S176.8,264.21,183.59,264.59Z" transform="translate(-10.19 -74.5)"/><path class="cls-35" d="M194.32,314.09c-.32.1-.62-.2-.85-.48-.95-1.14-4-2.73-5.12-3.64,0-.17,1.94.81,2,.63a11,11,0,0,0,2.8.7,16.73,16.73,0,0,1,2.11.41,5.25,5.25,0,0,0,1,.32c1,.31,1.31.93,2.05,1.1-.91.2-.91.16-1.82.36-.29.06-1.88.14-2,.41" transform="translate(-10.19 -74.5)"/><path class="cls-28" d="M187.22,301.45s-6.71-9.34-4.87-27.62c0,0,2.74-7.1,7.54,0l2.69,20.36s2.69-2,12.68.25v.91l-1.44,1.36.39,3.83S203.52,302.87,187.22,301.45Z" transform="translate(-10.19 -74.5)"/><path class="cls-36" d="M183.29,292.43s3.57-1.11,8.59-2.22v-5.3s-7.64.91-9.58,2.65Z" transform="translate(-10.19 -74.5)"/><path class="cls-37" d="M180,321.53a20.61,20.61,0,0,1,12.48-8.83s-1-.68-2.47-1.63-10.76,2.71-11,5.77c0,0-2.75,2.6-2.61,3.55S180,321.53,180,321.53Z" transform="translate(-10.19 -74.5)"/><path class="cls-37" d="M194.9,314.84l-1.43-1.23-2.92.94s-1.14-.43-5.86,3.39c0,0-3.37,3.85-2.39,4.53a16.91,16.91,0,0,0,4.16,1.32s1-5.53,4.58-6.63Z" transform="translate(-10.19 -74.5)"/><path class="cls-28" d="M167.43,304s6,6.55,18.22,4.23h0l.59,0a.16.16,0,0,0,.15-.17l0-4.75a.17.17,0,0,0-.1-.16c-.66-.24-4.33-1.64-4.06-2.49s-2.08-11.68-1.8-12.94,1.73-13.32,1.8-13.87c0,0,0,0,0,0,.13-.37,2.18-5.72,5.85-2a.13.13,0,0,0,.22,0c.34-.58,1.15-2.65-3.27-4.32-3.93-1.48-2.77-2.37-2-2.71a.17.17,0,0,0,0-.32c-1.26-.27-4.71-.1-7.44,8.4,0,0,0,0,0,0,0,.19-.33,2.5-1.41,16.73v0c-.09.28-1.16,3.85-1.27,4.21a.33.33,0,0,1,0,.06l-2.31,2.82c-.92,1.12-2.15,2-2.85,3.31C167.34,300.87,166.67,303.14,167.43,304Z" transform="translate(-10.19 -74.5)"/><path class="cls-37" d="M173,293.87l1.28-4.26s5,3.47,8.06,4.26,1.33,0,1.33,0l2.76,6.19s-6.49.07-8.95-2.3l-3.07-2.3Z" transform="translate(-10.19 -74.5)"/><path class="cls-10" d="M179.07,354.54a38.75,38.75,0,0,0,4.5,1.58l6,5.78-1.19,3.69-12.39-6.32S176.34,355,179.07,354.54Z" transform="translate(-10.19 -74.5)"/><path class="cls-4" d="M145.61,310s-1.13,5.5-3,5.52-13.28,0-13.28,0-7.44-1.63-8.18-13.56c0,0,.77-8.89,11.78-9.67l6.29,1.53,1.49,2.38-7.78,10s-.19,3.33-1.33,2.51,1.33,2.23,1.33,2.23Z" transform="translate(-10.19 -74.5)"/><path class="cls-38" d="M131.25,304.94,139,294a.32.32,0,0,1,.47-.07,3.38,3.38,0,0,1,1.21,2.18c.17,1.52-7.69,8.49-8.63,9.32a.3.3,0,0,1-.22.08h-.31A.38.38,0,0,1,131.25,304.94Z" transform="translate(-10.19 -74.5)"/><ellipse class="cls-39" cx="120.59" cy="232.24" rx="1.29" ry="1.44"/></svg>